<?xml version="1.0" encoding="UTF-8" standalone="no"?>
<!-- Created with Inkscape (http://www.inkscape.org/) -->

<svg
   xmlns:dc="http://purl.org/dc/elements/1.1/"
   xmlns:cc="http://creativecommons.org/ns#"
   xmlns:rdf="http://www.w3.org/1999/02/22-rdf-syntax-ns#"
   xmlns:svg="http://www.w3.org/2000/svg"
   xmlns="http://www.w3.org/2000/svg"
   xmlns:sodipodi="http://sodipodi.sourceforge.net/DTD/sodipodi-0.dtd"
   xmlns:inkscape="http://www.inkscape.org/namespaces/inkscape"
   width="1496.2874"
   height="219.77419"
   id="svg15140"
   version="1.1"
   inkscape:version="0.48.4 r9939"
   sodipodi:docname="info.svg">
  <defs
     id="defs15142">
    <filter
       color-interpolation-filters="sRGB"
       id="filter11661"
       inkscape:label="Drop Shadow">
      <feFlood
         id="feFlood11663"
         flood-opacity="0.544"
         flood-color="rgb(0,0,0)"
         result="flood" />
      <feComposite
         id="feComposite11665"
         in2="SourceGraphic"
         in="flood"
         operator="in"
         result="composite1" />
      <feGaussianBlur
         id="feGaussianBlur11667"
         stdDeviation="14"
         result="blur" />
      <feOffset
         id="feOffset11669"
         dx="0.7"
         dy="3.6"
         result="offset" />
      <feComposite
         id="feComposite11671"
         in2="offset"
         in="SourceGraphic"
         operator="over"
         result="composite2" />
    </filter>
    <linearGradient
       id="linearGradient5756-6-7-0">
      <stop
         style="stop-color:#2f1f0f;stop-opacity:1;"
         offset="0"
         id="stop5758-11-5-2" />
      <stop
         style="stop-color:#56391c;stop-opacity:1;"
         offset="1"
         id="stop5760-86-3-9" />
    </linearGradient>
    <linearGradient
       id="linearGradient5756-6-7-0-1">
      <stop
         style="stop-color:#2f1f0f;stop-opacity:1;"
         offset="0"
         id="stop5758-11-5-2-4" />
      <stop
         style="stop-color:#56391c;stop-opacity:1;"
         offset="1"
         id="stop5760-86-3-9-5" />
    </linearGradient>
    <filter
       color-interpolation-filters="sRGB"
       id="filter7663-5-2-4"
       inkscape:label="Drop Shadow">
      <feFlood
         id="feFlood7665-2-0-9"
         flood-opacity="0.464"
         flood-color="rgb(0,0,0)"
         result="flood" />
      <feComposite
         id="feComposite7667-7-9-9"
         in2="SourceGraphic"
         in="flood"
         operator="in"
         result="composite1" />
      <feGaussianBlur
         id="feGaussianBlur7669-9-8-9"
         stdDeviation="7.6"
         result="blur" />
      <feOffset
         id="feOffset7671-1-0-6"
         dx="0.7"
         dy="3.6"
         result="offset" />
      <feComposite
         id="feComposite7673-4-6-1"
         in2="offset"
         in="SourceGraphic"
         operator="over"
         result="composite2" />
    </filter>
  </defs>
  <sodipodi:namedview
     id="base"
     pagecolor="#ffffff"
     bordercolor="#666666"
     borderopacity="1.0"
     inkscape:pageopacity="0.0"
     inkscape:pageshadow="2"
     inkscape:zoom="0.7"
     inkscape:cx="864.39328"
     inkscape:cy="248.28347"
     inkscape:document-units="px"
     inkscape:current-layer="layer1"
     showgrid="false"
     fit-margin-top="0"
     fit-margin-left="0"
     fit-margin-right="0"
     fit-margin-bottom="0"
     inkscape:window-width="1855"
     inkscape:window-height="1056"
     inkscape:window-x="65"
     inkscape:window-y="24"
     inkscape:window-maximized="1" />
  <metadata
     id="metadata15145">
    <rdf:RDF>
      <cc:Work
         rdf:about="">
        <dc:format>image/svg+xml</dc:format>
        <dc:type
           rdf:resource="http://purl.org/dc/dcmitype/StillImage" />
        <dc:title></dc:title>
      </cc:Work>
    </rdf:RDF>
  </metadata>
  <g
     inkscape:label="Layer 1"
     inkscape:groupmode="layer"
     id="layer1"
     transform="translate(497.87631,354.23661)">
    <g
       transform="matrix(1.2674045,0,0,1.2674045,746.85766,-2745.7934)"
       id="g7578-6-3-0"
       style="filter:url(#filter7663-5-2-4)"
       inkscape:export-filename="/home/chadwyck/Pictures/invite_1.png"
       inkscape:export-xdpi="90"
       inkscape:export-ydpi="90">
      <g
         id="g7550-2-7-3"
         transform="translate(550.11764,0)"
         inkscape:export-filename="/home/chadwyck/Pictures/invite_1.png"
         inkscape:export-xdpi="90"
         inkscape:export-ydpi="90">
        <path
           style="fill:#b13636;fill-opacity:1;stroke:none"
           d="m -556.38404,1935.7188 0,107.125 85.375,0 -36.625,-53.5626 36.59375,-53.5624 -85.34375,0 z"
           id="rect7496-9-5-2-0"
           inkscape:connector-curvature="0" />
        <path
           style="fill:#982e2e;fill-opacity:1;stroke:none"
           d="m -530.71429,2011.1122 -25.35714,31.0714 -0.35714,-30.5357 z"
           id="path7548-7-4-8"
           inkscape:connector-curvature="0" />
      </g>
      <g
         id="g7550-4-9-3-7"
         transform="matrix(-1,0,0,1,-1333.7511,2.6171874e-6)"
         inkscape:export-filename="/home/chadwyck/Pictures/invite_1.png"
         inkscape:export-xdpi="90"
         inkscape:export-ydpi="90">
        <path
           style="fill:#b13636;fill-opacity:1;stroke:none"
           d="m -556.38404,1935.7188 0,107.125 85.375,0 -36.625,-53.5626 36.59375,-53.5624 -85.34375,0 z"
           id="rect7496-9-3-6-4-3"
           inkscape:connector-curvature="0" />
        <path
           style="fill:#982e2e;fill-opacity:1;stroke:none"
           d="m -530.71429,2011.1122 -25.35714,31.0714 -0.35714,-30.5357 z"
           id="path7548-8-1-9-2"
           inkscape:connector-curvature="0" />
      </g>
      <path
         style="fill:#c03a3a;fill-opacity:1;stroke:none"
         d="m -802.85712,1904.5051 822.25098,0 0,107.1429 -822.25098,0 z"
         id="rect7496-0-4-7"
         inkscape:connector-curvature="0" />
      <g
         transform="matrix(0.55599095,0,0,0.55599095,-467.45396,925.92745)"
         id="g7294-6-4-5"
         inkscape:export-filename="/home/chadwyck/Pictures/invite_1.png"
         inkscape:export-xdpi="90"
         inkscape:export-ydpi="90">
        <g
           id="g7270-0-3-7"
           transform="translate(2.4292015,4.0766989)">
          <g
             style="font-size:87.56616974px;font-style:normal;font-weight:normal;line-height:125%;letter-spacing:0px;word-spacing:0px;fill:#060606;fill-opacity:0.47945204;stroke:none;font-family:Sans"
             id="text7117-6-0-5">
            <path
               d="m -26.933332,1853.4751 c -4e-6,-6.188 0.262694,-11.4711 0.788095,-15.8495 0.58377,-4.4366 1.430242,-8.0852 2.539419,-10.9458 1.109163,-2.8604 2.481032,-4.962 4.11561,-6.3047 1.634556,-1.3426 3.56101,-2.014 5.779367,-2.014 1.342663,0 2.393456,0.1168 3.152383,0.3502 0.8172627,0.2336 1.459414,0.5839 1.9264553,1.0508 l 0,5.6042 c -0.4670413,-0.4669 -1.0508152,-0.8172 -1.7513233,-1.0507 -0.700549,-0.2919 -1.634587,-0.4378 -2.802118,-0.4379 -1.342697,10e-5 -2.539434,0.5547 -3.590212,1.6638 -0.99243,1.1092 -1.838902,2.8605 -2.539419,5.254 -0.642163,2.3351 -1.138371,5.3999 -1.488625,9.1944 -0.350275,3.7362 -0.525407,8.2313 -0.525397,13.4852 -10e-6,5.254 0.175122,9.749 0.525397,13.4852 0.350254,3.7362 0.846462,6.801 1.488625,9.1944 0.700517,2.3351 1.546989,4.0573 2.539419,5.1664 1.050778,1.1092 2.247515,1.6638 3.590212,1.6638 1.167531,0 2.101569,-0.1459 2.802118,-0.4378 0.7005081,-0.2919 1.284282,-0.6422 1.7513233,-1.0508 l 0,5.6042 c -0.4670413,0.4086 -1.1091926,0.7297 -1.9264553,0.9632 -0.758927,0.2335 -1.80972,0.3503 -3.152383,0.3503 -2.218357,0 -4.144811,-0.6713 -5.779367,-2.014 -1.634578,-1.3427 -3.006447,-3.4151 -4.11561,-6.2172 -1.109177,-2.8605 -1.955649,-6.4799 -2.539419,-10.8582 -0.525401,-4.4367 -0.788099,-9.7199 -0.788095,-15.8495"
               style="font-variant:normal;font-stretch:normal;fill:#060606;font-family:Breamcatcher;-inkscape-font-specification:Breamcatcher"
               id="path16530"
               inkscape:connector-curvature="0" />
            <path
               d="m 1.1644622,1887.5383 0,0 m 0,0 0,-68.214 5.6042348,0 0,62.9601 9.632279,0 0,5.2539 -15.2365138,0"
               style="font-variant:normal;font-stretch:normal;fill:#060606;font-family:Breamcatcher;-inkscape-font-specification:Breamcatcher"
               id="path16532"
               inkscape:connector-curvature="0" />
            <path
               d="m 21.860178,1887.5383 0,0 m 18.126197,-17.0754 -9.719845,0 -2.97725,17.0754 -5.429102,0 13.660322,-71.3664 13.04736,71.3664 -5.604235,0 -2.97725,-17.0754 m -9.019315,-4.2031 8.318786,0 -3.940478,-22.9424 -0.350265,0 -4.028043,22.9424"
               style="font-variant:normal;font-stretch:normal;fill:#060606;font-family:Breamcatcher;-inkscape-font-specification:Breamcatcher"
               id="path16534"
               inkscape:connector-curvature="0" />
            <path
               d="m 54.300708,1887.5383 0,0 m 0.875661,-6.042 c 0.408637,0.3502 0.934034,0.7005 1.576191,1.0508 0.700523,0.2919 1.576184,0.4378 2.626985,0.4378 3.210748,0 5.545843,-1.0216 7.005294,-3.0648 1.517796,-2.0432 2.276702,-5.1956 2.27672,-9.4572 -1.8e-5,-1.6929 -0.233527,-3.3275 -0.700529,-4.9037 -0.467037,-1.6345 -1.079999,-3.2107 -1.83889,-4.7286 -1.167563,-2.2183 -2.451865,-4.349 -3.852911,-6.3923 -1.401069,-2.0432 -2.71456,-4.0864 -3.940478,-6.1296 -1.167555,-1.9848 -2.130782,-4.0864 -2.889683,-6.3048 -0.758911,-2.2767 -1.138364,-4.7577 -1.13836,-7.4431 -4e-6,-5.0204 1.079977,-8.9609 3.239948,-11.8214 2.159956,-2.9188 5.137203,-4.3783 8.931749,-4.3783 1.342664,0 2.364268,0.1752 3.064816,0.5254 0.758887,0.2919 1.342661,0.5838 1.751323,0.8756 l 0,5.6042 c -0.291907,-0.4085 -0.817304,-0.7588 -1.576191,-1.0507 -0.758925,-0.2919 -1.576208,-0.4378 -2.451852,-0.4379 -2.39349,10e-5 -4.232378,0.9049 -5.516669,2.7146 -1.284314,1.7514 -1.926465,4.6119 -1.926456,8.5815 -9e-6,1.7513 0.262689,3.4443 0.788096,5.0788 0.525386,1.6346 1.196726,3.2108 2.014022,4.7286 0.992403,1.8097 2.101574,3.5902 3.327514,5.3415 1.284287,1.7514 2.510212,3.5611 3.677779,5.4291 1.342661,2.2184 2.451831,4.4951 3.327515,6.8302 0.934015,2.3351 1.401035,4.9621 1.401058,7.8809 -2.3e-5,5.721 -1.225949,10.1577 -3.677779,13.3101 -2.45187,3.094 -5.925325,4.641 -10.420374,4.641 -1.34269,0 -2.422671,-0.146 -3.239948,-0.4378 -0.81729,-0.2335 -1.430253,-0.5254 -1.83889,-0.8757 l 0,-5.6042"
               style="font-variant:normal;font-stretch:normal;fill:#060606;font-family:Breamcatcher;-inkscape-font-specification:Breamcatcher"
               id="path16536"
               inkscape:connector-curvature="0" />
            <path
               d="m 79.270747,1887.5383 0,0 m 0.875662,-6.042 c 0.408637,0.3502 0.934033,0.7005 1.576191,1.0508 0.700522,0.2919 1.576183,0.4378 2.626985,0.4378 3.210747,0 5.545843,-1.0216 7.005293,-3.0648 1.517797,-2.0432 2.276703,-5.1956 2.276721,-9.4572 -1.8e-5,-1.6929 -0.233528,-3.3275 -0.70053,-4.9037 -0.467036,-1.6345 -1.079999,-3.2107 -1.838889,-4.7286 -1.167564,-2.2183 -2.451866,-4.349 -3.852912,-6.3923 -1.401069,-2.0432 -2.71456,-4.0864 -3.940477,-6.1296 -1.167556,-1.9848 -2.130783,-4.0864 -2.889684,-6.3048 -0.758911,-2.2767 -1.138364,-4.7577 -1.13836,-7.4431 -4e-6,-5.0204 1.079978,-8.9609 3.239948,-11.8214 2.159957,-2.9188 5.137203,-4.3783 8.93175,-4.3783 1.342663,0 2.364268,0.1752 3.064815,0.5254 0.758887,0.2919 1.342661,0.5838 1.751324,0.8756 l 0,5.6042 c -0.291908,-0.4085 -0.817304,-0.7588 -1.576191,-1.0507 -0.758925,-0.2919 -1.576209,-0.4378 -2.451853,-0.4379 -2.39349,10e-5 -4.232377,0.9049 -5.516669,2.7146 -1.284313,1.7514 -1.926465,4.6119 -1.926455,8.5815 -10e-6,1.7513 0.262689,3.4443 0.788095,5.0788 0.525387,1.6346 1.196727,3.2108 2.014022,4.7286 0.992404,1.8097 2.101574,3.5902 3.327514,5.3415 1.284288,1.7514 2.510213,3.5611 3.67778,5.4291 1.34266,2.2184 2.451831,4.4951 3.327514,6.8302 0.934016,2.3351 1.401035,4.9621 1.401059,7.8809 -2.4e-5,5.721 -1.225949,10.1577 -3.677779,13.3101 -2.451871,3.094 -5.925325,4.641 -10.420375,4.641 -1.342689,0 -2.422671,-0.146 -3.239948,-0.4378 -0.81729,-0.2335 -1.430252,-0.5254 -1.838889,-0.8757 l 0,-5.6042"
               style="font-variant:normal;font-stretch:normal;fill:#060606;font-family:Breamcatcher;-inkscape-font-specification:Breamcatcher"
               id="path16538"
               inkscape:connector-curvature="0" />
            <path
               d="m 124.08411,1887.5383 0,0 m 23.99313,-33.4502 c -3e-5,6.188 -0.29192,11.4711 -0.87566,15.8494 -0.52543,4.32 -1.31352,7.881 -2.36429,10.6831 -0.99244,2.7437 -2.24755,4.7578 -3.76534,6.0421 -1.45946,1.2259 -3.12322,1.8389 -4.99128,1.8389 -1.86809,0 -3.56103,-0.613 -5.07883,-1.8389 -1.45945,-1.2843 -2.71456,-3.2984 -3.76535,-6.0421 -0.99242,-2.8021 -1.78052,-6.3631 -2.36429,-10.6831 -0.5254,-4.3783 -0.7881,-9.6614 -0.78809,-15.8494 -10e-6,-12.3176 1.05079,-21.3369 3.15238,-27.058 2.10158,-5.7209 5.04964,-8.5814 8.84418,-8.5815 3.73614,10e-5 6.65501,2.8606 8.75662,8.5815 2.15994,5.7211 3.23992,14.7404 3.23995,27.058 m -18.3889,0 c -1e-5,9.1652 0.52539,16.2873 1.57619,21.3661 1.05079,5.0788 2.65616,7.6183 4.81614,7.6183 2.15995,0 3.76533,-2.5395 4.81614,-7.6183 1.05078,-5.0788 1.57617,-12.2009 1.57619,-21.3661 -2e-5,-4.5534 -0.14596,-8.6691 -0.43783,-12.3469 -0.23353,-3.7361 -0.61298,-6.9177 -1.13836,-9.5447 -0.52541,-2.6269 -1.19675,-4.6409 -2.01402,-6.0421 -0.8173,-1.4593 -1.75134,-2.189 -2.80212,-2.1891 -1.05081,10e-5 -1.98484,0.7298 -2.80211,2.1891 -0.8173,1.4012 -1.48864,3.4152 -2.01403,6.0421 -0.5254,2.627 -0.93404,5.8086 -1.22592,9.5447 -0.23352,3.6778 -0.35028,7.7935 -0.35027,12.3469"
               style="font-variant:normal;font-stretch:normal;fill:#060606;font-family:Breamcatcher;-inkscape-font-specification:Breamcatcher"
               id="path16540"
               inkscape:connector-curvature="0" />
            <path
               d="m 157.99684,1887.5383 0,0 m 0,0 0,-68.214 14.53598,0 0,5.5167 -8.93175,0 0,41.4188 8.31879,0 0,4.2031 -8.31879,0 0,17.0754 -5.60423,0"
               style="font-variant:normal;font-stretch:normal;fill:#060606;font-family:Breamcatcher;-inkscape-font-specification:Breamcatcher"
               id="path16542"
               inkscape:connector-curvature="0" />
            <path
               d="m 198.42231,1887.5383 0,-9.9825 c 0,-3.3275 0.32107,-6.2756 0.96323,-8.8442 0.70052,-2.5686 1.72213,-5.0788 3.06482,-7.5307 1.34267,-2.5686 2.77291,-4.9912 4.29074,-7.268 1.5178,-2.335 2.88967,-4.7285 4.11561,-7.1804 0.9924,-1.8097 1.72211,-3.7361 2.18915,-5.7794 0.467,-2.1015 0.70051,-4.028 0.70053,-5.7793 -2e-5,-3.9696 -0.67136,-6.8301 -2.01402,-8.5815 -1.28432,-1.8097 -3.09402,-2.7145 -5.4291,-2.7146 -0.87568,10e-5 -1.69296,0.146 -2.45185,0.4379 -0.75892,0.2919 -1.28432,0.6422 -1.5762,1.0507 l 0,-5.6042 c 0.35026,-0.2918 0.87566,-0.5837 1.5762,-0.8756 0.75889,-0.3502 1.80968,-0.5254 3.15238,-0.5254 3.85289,0 6.83014,1.4595 8.93175,4.3783 2.15994,2.8605 3.23992,6.801 3.23995,11.8214 -3e-5,2.8605 -0.35029,5.6335 -1.0508,8.3188 -0.70055,2.6854 -1.66378,5.108 -2.88968,7.268 -1.28433,2.2767 -2.6562,4.4951 -4.11561,6.655 -1.40108,2.16 -2.74376,4.4367 -4.02805,6.8302 -1.16756,2.2183 -1.98484,4.4075 -2.45185,6.5674 -0.40865,2.1016 -0.61297,4.6119 -0.61296,7.5307 l 0,4.5535 14.62355,0 0,5.2539 -20.22779,0"
               style="font-variant:normal;font-stretch:normal;fill:#060606;font-family:Breamcatcher;-inkscape-font-specification:Breamcatcher"
               id="path16544"
               inkscape:connector-curvature="0" />
            <path
               d="m 249.19701,1854.0005 c -2e-5,4.5535 -0.23353,8.9318 -0.70053,13.1349 -0.46704,4.1448 -1.16757,7.7934 -2.10158,10.9458 -0.87569,3.1524 -2.01405,5.6626 -3.41508,7.5307 -1.40108,1.8681 -3.03565,2.8021 -4.90371,2.8021 -1.86809,0 -3.50266,-0.934 -4.90371,-2.8021 -1.40106,-1.8681 -2.56861,-4.3783 -3.50264,-7.5307 -0.87567,-3.1524 -1.54701,-6.801 -2.01402,-10.9458 -0.40865,-4.2031 -0.61297,-8.5814 -0.61297,-13.1349 0,-4.5534 0.20432,-8.9609 0.61297,-13.2225 0.46701,-4.3199 1.13835,-8.1436 2.01402,-11.4712 0.93403,-3.3274 2.10158,-5.9836 3.50264,-7.9685 1.40105,-1.9848 3.03562,-2.9772 4.90371,-2.9772 1.86806,0 3.50263,0.9924 4.90371,2.9772 1.40103,1.9849 2.53939,4.6411 3.41508,7.9685 0.93401,3.3276 1.63454,7.1513 2.10158,11.4712 0.467,4.2616 0.70051,8.6691 0.70053,13.2225 m -16.63757,0 c -1e-5,3.3275 0.0876,6.7134 0.2627,10.1577 0.17512,3.4443 0.46701,6.5674 0.87566,9.3695 0.40863,2.7438 0.96322,5.0205 1.66376,6.8302 0.75889,1.7513 1.66374,2.627 2.71455,2.627 1.05078,0 1.92644,-0.8757 2.62699,-2.627 0.75888,-1.8097 1.34266,-4.0864 1.75132,-6.8302 0.40862,-2.8021 0.70051,-5.9252 0.87566,-9.3695 0.17511,-3.4443 0.26268,-6.8302 0.2627,-10.1577 -2e-5,-3.3275 -0.0876,-6.7718 -0.2627,-10.3328 -0.17515,-3.561 -0.46704,-6.8009 -0.87566,-9.7199 -0.40866,-2.9188 -0.99244,-5.3123 -1.75132,-7.1804 -0.70055,-1.9264 -1.57621,-2.8896 -2.62699,-2.8897 -1.05081,10e-5 -1.95566,0.9633 -2.71455,2.8897 -0.70054,1.8681 -1.25513,4.2616 -1.66376,7.1804 -0.40865,2.919 -0.70054,6.1589 -0.87566,9.7199 -0.17514,3.561 -0.26271,7.0053 -0.2627,10.3328"
               style="font-variant:normal;font-stretch:normal;fill:#060606;font-family:Breamcatcher;-inkscape-font-specification:Breamcatcher"
               id="path16546"
               inkscape:connector-curvature="0" />
            <path
               d="m 259.24522,1887.5383 0,-60.3331 5.51667,-8.8441 0,69.1772 -5.51667,0"
               style="font-variant:normal;font-stretch:normal;fill:#060606;font-family:Breamcatcher;-inkscape-font-specification:Breamcatcher"
               id="path16548"
               inkscape:connector-curvature="0" />
            <path
               d="m 288.85763,1861.1809 c -2e-5,-6.8301 -0.99243,-11.7338 -2.97725,-14.7111 -1.98484,-2.9772 -5.34154,-4.2323 -10.07011,-3.7653 l 0.7881,-23.3802 16.02461,0 0,5.5167 -10.85821,0 -0.43783,13.4851 c 2.5686,0.3504 4.69937,1.1676 6.39233,2.4519 1.69293,1.2843 3.03561,2.9481 4.02804,4.9913 0.9924,1.9848 1.69293,4.2907 2.10159,6.9177 0.40862,2.627 0.61294,5.4583 0.61297,8.4939 -3e-5,8.4648 -1.1092,15.1198 -3.32752,19.9651 -2.21836,4.8453 -5.51668,7.268 -9.89498,7.268 -1.34269,0 -2.42267,-0.1168 -3.23994,-0.3503 -0.75892,-0.2335 -1.37188,-0.5546 -1.83889,-0.9632 l 0,-5.6042 c 0.46701,0.4086 1.05078,0.7589 1.75132,1.0508 0.70052,0.2919 1.63456,0.4378 2.80212,0.4378 2.68535,0 4.69937,-1.9556 6.04206,-5.8669 1.40104,-3.9697 2.10157,-9.282 2.10159,-15.9371"
               style="font-variant:normal;font-stretch:normal;fill:#060606;font-family:Breamcatcher;-inkscape-font-specification:Breamcatcher"
               id="path16550"
               inkscape:connector-curvature="0" />
          </g>
        </g>
      </g>
    </g>
  </g>
</svg>
