<?xml version="1.0" encoding="UTF-8" standalone="no"?>
<!-- Created with Inkscape (http://www.inkscape.org/) -->

<svg
   xmlns:dc="http://purl.org/dc/elements/1.1/"
   xmlns:cc="http://creativecommons.org/ns#"
   xmlns:rdf="http://www.w3.org/1999/02/22-rdf-syntax-ns#"
   xmlns:svg="http://www.w3.org/2000/svg"
   xmlns="http://www.w3.org/2000/svg"
   xmlns:xlink="http://www.w3.org/1999/xlink"
   xmlns:sodipodi="http://sodipodi.sourceforge.net/DTD/sodipodi-0.dtd"
   xmlns:inkscape="http://www.inkscape.org/namespaces/inkscape"
   width="634.60516"
   height="913.53131"
   id="svg15140"
   version="1.1"
   inkscape:version="0.48.4 r9939"
   sodipodi:docname="seal.svg">
  <defs
     id="defs15142">
    <filter
       color-interpolation-filters="sRGB"
       id="filter11661"
       inkscape:label="Drop Shadow">
      <feFlood
         id="feFlood11663"
         flood-opacity="0.544"
         flood-color="rgb(0,0,0)"
         result="flood" />
      <feComposite
         id="feComposite11665"
         in2="SourceGraphic"
         in="flood"
         operator="in"
         result="composite1" />
      <feGaussianBlur
         id="feGaussianBlur11667"
         stdDeviation="14"
         result="blur" />
      <feOffset
         id="feOffset11669"
         dx="0.7"
         dy="3.6"
         result="offset" />
      <feComposite
         id="feComposite11671"
         in2="offset"
         in="SourceGraphic"
         operator="over"
         result="composite2" />
    </filter>
    <linearGradient
       inkscape:collect="always"
       xlink:href="#linearGradient5756-6-7-0"
       id="linearGradient7467-0-4"
       gradientUnits="userSpaceOnUse"
       gradientTransform="translate(273.91197,1652.7862)"
       x1="-593.40887"
       y1="57.08078"
       x2="-504.8634"
       y2="222.7458" />
    <linearGradient
       id="linearGradient5756-6-7-0">
      <stop
         style="stop-color:#2f1f0f;stop-opacity:1;"
         offset="0"
         id="stop5758-11-5-2" />
      <stop
         style="stop-color:#56391c;stop-opacity:1;"
         offset="1"
         id="stop5760-86-3-9" />
    </linearGradient>
    <linearGradient
       inkscape:collect="always"
       xlink:href="#linearGradient5790-7-1-4"
       id="linearGradient7469-3-9"
       gradientUnits="userSpaceOnUse"
       gradientTransform="translate(273.91197,1652.7862)"
       x1="-707.61188"
       y1="435.4115"
       x2="-490.17654"
       y2="434.1488" />
    <linearGradient
       inkscape:collect="always"
       id="linearGradient5790-7-1-4">
      <stop
         style="stop-color:#83512e;stop-opacity:1;"
         offset="0"
         id="stop5792-2-5-8" />
      <stop
         style="stop-color:#83512e;stop-opacity:0;"
         offset="1"
         id="stop5794-4-0-8" />
    </linearGradient>
    <linearGradient
       inkscape:collect="always"
       xlink:href="#linearGradient5768-0-6-7"
       id="linearGradient7471-9-2"
       gradientUnits="userSpaceOnUse"
       gradientTransform="translate(273.91197,1652.7862)"
       x1="-584.36499"
       y1="319.85233"
       x2="-651.90167"
       y2="320.56662" />
    <linearGradient
       inkscape:collect="always"
       id="linearGradient5768-0-6-7">
      <stop
         style="stop-color:#8a4f2d;stop-opacity:1;"
         offset="0"
         id="stop5770-08-7-2" />
      <stop
         style="stop-color:#8a4f2d;stop-opacity:0;"
         offset="1"
         id="stop5772-2-2-9" />
    </linearGradient>
    <linearGradient
       inkscape:collect="always"
       xlink:href="#linearGradient5778-2-3-0"
       id="linearGradient7473-8-9"
       gradientUnits="userSpaceOnUse"
       gradientTransform="translate(273.91197,1652.7862)"
       x1="-525.58618"
       y1="397.52695"
       x2="-693.97479"
       y2="329.08911" />
    <linearGradient
       inkscape:collect="always"
       id="linearGradient5778-2-3-0">
      <stop
         style="stop-color:#694225;stop-opacity:1;"
         offset="0"
         id="stop5780-4-2-0" />
      <stop
         style="stop-color:#694225;stop-opacity:0;"
         offset="1"
         id="stop5782-0-6-15" />
    </linearGradient>
    <linearGradient
       inkscape:collect="always"
       xlink:href="#linearGradient5756-6-7-0-1"
       id="linearGradient7467-0-4-4"
       gradientUnits="userSpaceOnUse"
       gradientTransform="translate(273.91197,1652.7862)"
       x1="-593.40887"
       y1="57.08078"
       x2="-504.8634"
       y2="222.7458" />
    <linearGradient
       id="linearGradient5756-6-7-0-1">
      <stop
         style="stop-color:#2f1f0f;stop-opacity:1;"
         offset="0"
         id="stop5758-11-5-2-4" />
      <stop
         style="stop-color:#56391c;stop-opacity:1;"
         offset="1"
         id="stop5760-86-3-9-5" />
    </linearGradient>
    <linearGradient
       inkscape:collect="always"
       xlink:href="#linearGradient5790-7-1-4-6"
       id="linearGradient7469-3-9-0"
       gradientUnits="userSpaceOnUse"
       gradientTransform="translate(273.91197,1652.7862)"
       x1="-707.61188"
       y1="435.4115"
       x2="-490.17654"
       y2="434.1488" />
    <linearGradient
       inkscape:collect="always"
       id="linearGradient5790-7-1-4-6">
      <stop
         style="stop-color:#83512e;stop-opacity:1;"
         offset="0"
         id="stop5792-2-5-8-4" />
      <stop
         style="stop-color:#83512e;stop-opacity:0;"
         offset="1"
         id="stop5794-4-0-8-3" />
    </linearGradient>
    <linearGradient
       inkscape:collect="always"
       xlink:href="#linearGradient5768-0-6-7-1"
       id="linearGradient7471-9-2-1"
       gradientUnits="userSpaceOnUse"
       gradientTransform="translate(273.91197,1652.7862)"
       x1="-584.36499"
       y1="319.85233"
       x2="-651.90167"
       y2="320.56662" />
    <linearGradient
       inkscape:collect="always"
       id="linearGradient5768-0-6-7-1">
      <stop
         style="stop-color:#8a4f2d;stop-opacity:1;"
         offset="0"
         id="stop5770-08-7-2-2" />
      <stop
         style="stop-color:#8a4f2d;stop-opacity:0;"
         offset="1"
         id="stop5772-2-2-9-8" />
    </linearGradient>
    <linearGradient
       inkscape:collect="always"
       xlink:href="#linearGradient5778-2-3-0-6"
       id="linearGradient7473-8-9-1"
       gradientUnits="userSpaceOnUse"
       gradientTransform="translate(273.91197,1652.7862)"
       x1="-525.58618"
       y1="397.52695"
       x2="-693.97479"
       y2="329.08911" />
    <linearGradient
       inkscape:collect="always"
       id="linearGradient5778-2-3-0-6">
      <stop
         style="stop-color:#694225;stop-opacity:1;"
         offset="0"
         id="stop5780-4-2-0-7" />
      <stop
         style="stop-color:#694225;stop-opacity:0;"
         offset="1"
         id="stop5782-0-6-15-8" />
    </linearGradient>
  </defs>
  <sodipodi:namedview
     id="base"
     pagecolor="#ffffff"
     bordercolor="#666666"
     borderopacity="1.0"
     inkscape:pageopacity="0.0"
     inkscape:pageshadow="2"
     inkscape:zoom="0.7"
     inkscape:cx="456.20491"
     inkscape:cy="544.97348"
     inkscape:document-units="px"
     inkscape:current-layer="layer1"
     showgrid="false"
     fit-margin-top="0"
     fit-margin-left="0"
     fit-margin-right="0"
     fit-margin-bottom="0"
     inkscape:window-width="1855"
     inkscape:window-height="1056"
     inkscape:window-x="65"
     inkscape:window-y="24"
     inkscape:window-maximized="1" />
  <metadata
     id="metadata15145">
    <rdf:RDF>
      <cc:Work
         rdf:about="">
        <dc:format>image/svg+xml</dc:format>
        <dc:type
           rdf:resource="http://purl.org/dc/dcmitype/StillImage" />
        <dc:title></dc:title>
      </cc:Work>
    </rdf:RDF>
  </metadata>
  <g
     inkscape:label="Layer 1"
     inkscape:groupmode="layer"
     id="layer1"
     transform="translate(146.8308,351.30381)">
    <g
       id="g7388-4-4"
       transform="translate(582.61401,-2049.9869)">
      <path
         sodipodi:nodetypes="cssccscc"
         inkscape:connector-curvature="0"
         id="path6821-6-5-1"
         d="m -523.09827,2157.1406 c -1.5153,2.0203 -122.3606,52.6329 -161.6245,103.0356 -22.6101,29.0245 -26.46,66.5696 -34.7574,104.76 -17.466,80.3913 -6.6588,245.7629 -6.6588,245.7629 l 599.5255,1.5153 c 0,0 63.785435,-252.1263 10.6066,-359.6143 -27.65905,-55.9061 -152.02796,-109.0965 -152.02796,-109.0965 z"
         style="fill:#42392b;fill-opacity:1;stroke:none" />
      <path
         sodipodi:nodetypes="cccsscsc"
         inkscape:connector-curvature="0"
         id="path6237-4-6-8"
         d="m -521.80227,2162.2913 54.2857,-40 195.00001,14.2857 c 0,0 19.20943,35.8357 25.71428,55 10.65797,31.3999 22.40531,63.9978 21.42858,97.1428 -1.69837,57.6339 -51.38896,170.6784 -51.38896,170.6784 -2.03471,-30.708 -28.55485,-65.644 -64.91338,-92.6083 -81.98268,-60.8001 -131.04993,-133.2384 -180.12623,-204.4986 z"
         style="fill:#c6af8f;fill-opacity:1;stroke:none" />
      <path
         sodipodi:nodetypes="cccscccccccc"
         inkscape:connector-curvature="0"
         id="path6194-0-9-3"
         d="m -467.15937,2122.2913 -4.2857,7.1428 c 23.8908,47.5465 53.07476,77.449 79.64276,116.0714 l 8.5715,-3.5714 c 25.293,-10.5387 39.9645,-27.0753 43.5714,-34.4643 l 44.2857,11.9643 c 8.14037,7.991 17.38096,16.0034 25.00001,17.1429 8.81718,-24.069 8.38827,-52.0748 2.5,-79.4643 l -20.00001,-1.9643 -24.64285,7.5 -33.21425,-0.7143 z"
         style="fill:#544331;fill-opacity:1;stroke:none" />
      <path
         sodipodi:nodetypes="ssssssssssssssssssssssss"
         inkscape:connector-curvature="0"
         id="path5282-2-1-4"
         d="m -425.61861,1812.1735 c -16.80046,27.9972 -11.18656,75.5785 -23.23346,91.9239 -2.5932,3.5185 -8.2581,-3.6668 -12.6269,-3.5355 -4.5458,0.1366 -12.3725,0.7074 -14.6473,7.0711 -2.8345,7.9296 -0.623,15.3792 0.5051,21.2132 2.5333,13.1007 6.3862,27.5583 12.1219,40.4061 2.306,5.1655 3.5572,9.7357 13.637,10.1015 5.5941,0.203 10.4751,-9.2873 10.1015,-6.566 -2.6456,19.2748 3.1189,26.4265 3.3336,40.1744 0.3212,20.5621 -8.5383,54.9063 -3.9465,62.1862 29.58126,46.8988 111.92426,83.4793 115.20175,85.0792 14.27751,6.9698 34.37224,-20.54 43.36964,-35.7935 12.03173,-20.3977 10.75458,-64.2419 13.40555,-67.7271 11.3508,-14.9231 25.67648,-31.8438 30.16588,-58.7015 0.51631,-3.0888 6.35908,2.5431 9.28572,1.4286 6.63805,-2.5278 12.02219,-9.4965 13.57143,-16.4286 2.37031,-10.6059 9.92369,-22.5844 11.42857,-36.4285 0.70228,-6.4607 1.31981,-14.3071 -2.85715,-19.2857 -3.38751,-4.0377 -13.79092,0.1299 -15,-5 -8.06027,-34.1984 8.39429,-74.9388 -9.28571,-105.7143 -6.80601,-11.8472 -15.39823,-23.7328 -27.14286,-30.7143 -25.61829,-15.2287 -57.34017,-20.0933 -87.14286,-20 -17.6141,0.055 -36.4214,2.9209 -51.4286,12.1428 -12.6939,7.8005 -21.1501,21.3927 -28.8163,34.168 z"
         style="fill:#d4a078;fill-opacity:1;stroke:none" />
      <path
         sodipodi:nodetypes="cccc"
         inkscape:connector-curvature="0"
         id="path5844-0-4-5"
         d="m -447.84197,1924.1742 c 4.6824,-10.5594 0.01,-16.8648 -2.5254,-23.7386 l 9.7228,8.0812 c 1.2146,7.4121 1.2936,14.1194 -7.1974,15.6574 z"
         style="fill:#996945;fill-opacity:1;stroke:none" />
      <path
         sodipodi:nodetypes="ccsccssccc"
         inkscape:connector-curvature="0"
         id="path5821-2-2-10"
         d="m -309.30228,1922.2913 c 1.79609,6.8762 4.72522,13.4288 3.21429,21.25 2.06678,0.8241 3.89089,1.9792 5.17857,4.1071 2.06784,3.4172 5.53638,6.4433 4.10714,10.7143 l 5.71429,-2.1429 c 3.59717,-10.1911 25.95831,6.0572 27.32143,3.2143 2.31446,-4.827 -0.61509,-7.8867 1.78571,-10.3571 4.2823,-4.4065 15,-10.7143 15,-10.7143 l -20.35714,1.6071 c -21.58583,0.016 -33.13513,-7.7732 -41.96429,-17.6785 z"
         style="fill:#a86f4b;fill-opacity:1;stroke:none" />
      <path
         sodipodi:nodetypes="cssssssscssccccccccccssscc"
         inkscape:connector-curvature="0"
         id="path5720-0-8-1"
         d="m -440.26577,1915.7142 c 1.0638,-22.6673 3.9576,-47.0935 11.61666,-67.6802 6.6775,-17.9482 1.1216,-39.1327 11.1117,-51.5178 14.0746,-17.4488 32.4405,-26.4096 45.9619,-27.7792 25.0284,-2.5351 33.9433,2.5693 49.49752,3.5355 25.35648,1.5751 42.86902,4.2976 62.12438,14.1422 14.59085,7.4597 17.303,19.6322 23.23351,30.3045 13.60633,24.4855 13.3926,54.5528 12.6269,88.3884 -0.37109,16.3983 -2.3797,28.2759 -2.0203,38.3858 3.12348,-11.5238 6.51769,-22.8926 8.5863,-35.3554 3.68491,-22.2005 1.55731,-44.6361 4.54568,-66.67 3.79416,-27.9752 -7.88581,-39.1325 -24.74873,-50.0026 -3.54466,-20.684 -14.50448,-39.5948 -39.90103,-55.0533 -7.0326,-23.0485 -28.74483,-37.0801 -57.07884,-35.9777 2.51392,1.8111 7.89228,2.2829 6.36458,4.8083 -6.4749,-4.998 -25.80675,-0.9499 -38.57745,1.1659 4.29416,1.3307 10.11031,0.4426 9.84151,4.1859 -20.3893,3.403 -41.89543,2.1588 -45.80873,23.7973 2.8258,1.1726 3.5964,1.2444 4.7982,2.9042 -13.0591,1.4737 -27.9747,6.501 -38.13316,28.9156 2.2856,-1.7907 4.4478,-1.7314 6.56596,-1.0101 -6.30926,3.6975 -13.24036,5.8992 -15.65736,15.1523 -4.3225,16.5479 -5.2681,26.9482 -5.5558,40.406 -0.2387,11.1596 -1.7593,21.3019 -3.0305,31.8198 -2.2692,18.7753 0.1025,32.4145 1.0102,47.4772 5.7501,3.0174 9.1745,9.3574 12.6269,15.6574 z"
         style="fill:url(#linearGradient7467-0-4-4);fill-opacity:1;stroke:none" />
      <path
         id="path5644-8-9-5"
         d="m -245.93174,1802.9425 c -0.0619,0.01 -0.10727,0.033 -0.15625,0.062 -1.53467,0.913 6.52688,45.8355 0.71875,53.2187 -3.68099,4.6793 -16.85964,-7.4139 -17.5,-3.5625 -1.13581,6.8313 21.40423,25.8693 17.125,22.125 -3.50697,4.4907 -14.82964,-1.4603 -23.5625,-3.9375 l 19.65625,15.375 c -39.2003,-3.2299 -46.80338,12.0661 -59.65625,24.2813 8.70502,8.3795 16.39571,14.6108 49.28125,28.5625 10.57923,5.4829 8.06879,32.3322 -2.84375,33.2187 -11.82547,0.9607 -23.40138,-13.3738 -28.9375,-16.0625 -3.86106,-1.8752 -10.71875,7.125 -10.71875,7.125 8.71466,10.4762 20.58281,21.9692 16.09375,31.4375 -12.18517,25.7009 -59.22937,19.1092 -71.09377,19.2813 -1.3754,9.6273 -0.8013,20.9932 23.2188,23.9375 16.40573,2.0109 26.90725,7.8201 22.15622,17.8437 -7.63824,16.1151 -41.74672,12.0311 -65.71872,15.7188 8.0952,3.6267 16.0124,8.2092 24.2812,10.375 35.82502,9.3831 59.49761,2.602 81.43752,-24.2813 2.57868,-1.7326 5.00086,-3.6282 7.3125,-5.625 10.61714,-13.8397 22.56286,-29.9165 26.59375,-54.0312 0.0807,-0.4827 0.31569,-0.728 0.625,-0.8438 0.10482,-0.1298 0.26691,-0.1601 0.5,-0.094 0.008,0 0.0233,0 0.0312,0 1.95767,0.107 5.91271,3.2294 8.15625,2.375 6.63805,-2.5278 12.01326,-9.5054 13.5625,-16.4375 2.37031,-10.6059 9.93262,-22.5933 11.4375,-36.4375 0.70228,-6.4607 1.30196,-14.3026 -2.875,-19.2812 -2.89712,-3.4532 -10.91734,-0.9137 -13.9375,-3.3125 -2.31789,0.2359 -3.90862,0.198 -3.90625,-0.625 0.0175,-6.0654 0.29122,-12.1884 0.625,-18.3438 -0.61825,-13.9151 0.96487,-28.3941 1.40625,-42.5 -0.53449,-14.6899 -2.91033,-28.9853 -9.53125,-42.3437 -3.8845,-7.8374 -11.86255,-17.4733 -13.78125,-17.2188 z"
         style="fill:#a5764d;fill-opacity:1;stroke:none"
         inkscape:connector-curvature="0" />
      <path
         id="path5786-5-5-66"
         d="m -433.71297,2012.1925 c 0,0 8.31966,27.8187 13.40626,41.4062 9.1177,24.3556 24.8096,57.2869 35.9375,73.7188 29.1744,19.436 57.2987,31.9842 59.18747,32.9062 14.27751,6.9698 34.3776,-20.5277 43.375,-35.7812 12.03173,-20.3977 10.75528,-64.2648 13.40625,-67.75 0.026,-0.034 0.0677,-0.06 0.0937,-0.094 0.1715,-1.5067 0.33949,-3.0088 0.53125,-4.5 -8.91286,6.3993 -14.94644,16.7231 -27.78125,22.4687 -10.55986,4.7273 -25.96471,11.4016 -39.65622,10.8438 -15.7517,-0.6418 -29.837,-5.2962 -45.4688,-12.875 -24.2123,-11.739 -37.7932,-32.6229 -53.03116,-60.3438 z"
         style="fill:url(#linearGradient7469-3-9-0);fill-opacity:1;stroke:none"
         inkscape:connector-curvature="0" />
      <g
         id="g5491-5-9-7"
         transform="translate(273.91197,1652.7862)">
        <path
           style="fill:#e6bb9c;fill-opacity:1;stroke:none"
           d="m -639.93164,171.25662 c 4.89588,0.98808 17.39933,0.51334 20.96067,-3.78807 2.44973,-2.9588 2.65826,-19.24157 -0.25254,-25.25381 -3.16849,-6.54451 -17.88012,0.77637 -20.45559,7.57614 -2.04012,5.38634 -3.54406,20.80145 -0.25254,21.46574 z"
           id="path5272-2-5-35"
           inkscape:connector-curvature="0"
           sodipodi:nodetypes="sssss" />
        <path
           style="fill:#e6bb9c;fill-opacity:1;stroke:none"
           d="m -552.80598,169.48886 c 2.73928,3.41479 15.68614,-0.69893 16.16244,-3.53554 0.60284,-3.59021 -8.69539,-11.81924 -11.61675,-10.35406 -3.36719,1.68879 -6.90382,10.94995 -4.54569,13.8896 z"
           id="path5274-9-4-6"
           inkscape:connector-curvature="0"
           sodipodi:nodetypes="ssss" />
        <path
           style="fill:#e6bb9c;fill-opacity:1;stroke:none"
           d="m -666.1956,207.36958 c -1.25843,-4.46804 21.09435,-17.4683 33.08249,-15.40483 6.74629,1.16121 16.73623,13.01287 14.64721,14.39467 -6.26796,4.14601 -14.963,1.58555 -22.47589,1.76777 -8.41925,0.2042 -23.76121,4.54186 -25.25381,-0.75761 z"
           id="path5276-9-7-8"
           inkscape:connector-curvature="0"
           sodipodi:nodetypes="sssss" />
        <path
           style="fill:#e6bb9c;fill-opacity:1;stroke:none"
           d="m -562.65497,209.38988 c 0.10119,4.60728 21.75591,0.0671 23.48605,2.27285 1.61854,2.06344 -13.26424,3.2484 -6.31346,5.55583 20.8668,6.9271 31.79931,14.69261 31.56727,11.36422 -0.36744,-5.27066 -11.5941,-11.5541 -18.30901,-15.78364 -4.65149,-2.92985 -8.95532,-7.34755 -16.28871,-9.47017 -5.26357,-1.52352 -14.29435,-0.86945 -14.14214,6.06091 z"
           id="path5278-4-4-9"
           inkscape:connector-curvature="0"
           sodipodi:nodetypes="sssssss" />
        <path
           style="fill:#e6bb9c;fill-opacity:1;stroke:none"
           d="m -606.07143,258.43361 c -2.55491,2.88045 -0.39359,13.0985 -0.17857,19.64286 0.148,4.50452 -3.88077,8.44208 -4.82143,14.10714 -0.22762,1.37083 2.83369,1.27045 4.10714,0.71429 3.51023,-1.53303 1.94412,-4.06614 5.40179,-5.71429 2.82235,-1.34532 2.957,-0.33257 4.95536,-1.16071 3.94237,-1.63376 -1.94745,-3.2169 -3.39286,-7.23215 -2.39838,-6.66254 -1.37266,-25.65462 -6.07143,-20.35714 z"
           id="path5280-7-4-2"
           inkscape:connector-curvature="0"
           sodipodi:nodetypes="ssssssss" />
      </g>
      <path
         sodipodi:nodetypes="scccssss"
         inkscape:connector-curvature="0"
         id="path5642-2-6-9"
         d="m -309.45109,1914.199 c 12.78891,12.2996 38.2429,12.8134 54.04317,8.8388 -20.67463,0.505 -32.14346,-5.2221 -40.15357,-13.3845 5.8735,-9.8488 27.43157,-13.4314 38.63834,4.7982 9.0156,4.6135 21.23591,2.2215 15.15229,-15.1523 -4.69934,-13.4206 -21.97127,-25.9624 -52.52794,-23.7386 -2.72879,0.1986 -15.25812,-3.469 -18.18274,7.8287 -3.36904,13.0144 -2.25159,25.7297 3.03045,30.8097 z"
         style="fill:#64361e;fill-opacity:1;stroke:none" />
      <path
         sodipodi:nodetypes="sacccssssssss"
         inkscape:connector-curvature="0"
         id="path5714-7-1-1"
         d="m -340.19511,1901.0413 c -4.8492,5.1384 -9.5339,11.8495 -16.4286,13.3928 -9.6362,2.1571 -23.8258,0.1932 -28.75,-7.1428 8.2458,1.46 12.4819,-0.911 18.0357,-3.5715 -8.5723,1.6605 -14.529,0.5588 -22.8571,-2.6785 -1.7215,1.0119 -2.7655,2.3494 -5.8929,3.0357 -3.8051,0.8349 -8.6127,2.5291 -14.4643,0.3571 -5.6523,-2.098 -4.1175,-9.7278 -2.6785,-14.4643 0,0 -0.1712,-12.036 4.2857,-14.1071 12.8711,-5.9813 27.575,-12.1413 41.9643,-11.4286 11.2826,0.5589 23.7998,4.3471 31.4285,12.6786 2.8993,3.1663 4.4565,8.0868 3.75,12.3214 -0.7856,4.7095 -5.1159,8.1347 -8.3928,11.6072 z"
         style="fill:#814c2a;fill-opacity:1;stroke:none" />
      <path
         sodipodi:nodetypes="cccccccc"
         inkscape:connector-curvature="0"
         id="path5654-7-5-2"
         d="m -374.47971,1997.4103 c 1.8345,2.473 5.1103,2.904 8.3338,3.4092 21.268,8.9394 43.13696,12.6701 66.41754,4.1669 l 4.54569,-5.6821 -4.67196,-3.9143 -5.05076,-5.6821 -65.02861,-1.5153 z"
         style="fill:#b8855d;fill-opacity:1;stroke:none" />
      <path
         sodipodi:nodetypes="cccccccsccc"
         inkscape:connector-curvature="0"
         id="path5674-4-9-88"
         d="m -356.71301,1999.5234 c 1.3678,-12.0941 10.4622,-5.3556 9.375,0.2679 4.0863,-11.4 13.0789,-10.258 13.0357,4.6428 4.3602,-12.613 10.71091,-16.1318 15.00003,1.0714 1.30067,-15.617 8.76221,-7.8864 8.57143,-1.9642 1.85026,-8.0189 7.23708,-4.0634 6.58772,-0.5518 1.58119,-2.6898 3.81518,-1.4189 3.323,2.1589 0,0 -21.3614,5.2604 -23.125,5.7143 -3.20378,0.8245 -48.76048,-10.2294 -47.32148,-11.4286 0.1727,-4.4533 4.9207,-4.2318 5.0171,-1.7223 1.676,-4.6743 8.265,-6.367 9.5365,1.8116 z"
         style="fill:#d9bb86;fill-opacity:1;stroke:none" />
      <path
         sodipodi:nodetypes="ccccccc"
         inkscape:connector-curvature="0"
         id="path6153-5-0-0-6"
         d="m -392.29331,1898.9722 c 4.7271,4.2247 12.1494,6.4177 24.5982,4.8215 l 6.7857,-1.7411 1.0268,-5.0446 -15.3125,-5.2233 -14.7322,4.4643 z"
         style="fill:#a5764d;fill-opacity:1;stroke:none" />
      <path
         sodipodi:nodetypes="ccssccsc"
         inkscape:connector-curvature="0"
         id="path5628-0-4-75"
         d="m -381.89161,1894.2555 -3.0803,1.0715 c -0.2508,4.2319 0.8295,7.8712 7.1875,8.3482 3.3107,0.2484 7.2197,0.3157 9.0625,-1.6072 2.1315,-2.2242 2.3355,-4.4037 1.5625,-8.2589 l -4.6875,-0.7589 c -1.0415,2.3017 -0.9794,5.8173 -3.3036,6.7857 -3.1354,1.3064 -4.6277,-3.4752 -6.7411,-5.5804 z"
         style="fill:#223036;fill-opacity:1;stroke:none" />
      <path
         sodipodi:nodetypes="ccsccsc"
         inkscape:connector-curvature="0"
         id="path5632-1-9-1"
         d="m -284.95489,1903.2135 -1.8309,0.442 c 0.0714,4.98 1.28742,9.5329 7.57615,10.1646 7.3278,0.7362 10.78631,-2.4738 10.22779,-8.6494 l -5.3033,-1.7678 c 0,0 -4.54569,5.619 -4.79823,5.619 -0.25253,0 -5.87151,-5.8084 -5.87151,-5.8084 z"
         style="fill:#223036;fill-opacity:1;stroke:none" />
      <path
         sodipodi:nodetypes="ccsccsc"
         inkscape:connector-curvature="0"
         id="path5630-2-4-2"
         d="m -284.82862,1903.2135 3.85121,-0.3788 c -0.92441,1.5904 -0.59774,3.1968 1.26269,3.283 2.25086,0.1043 1.63139,-2.5947 1.51523,-3.283 l 5.42957,1.4521 c 0.75403,4.7051 -1.20226,8.0182 -5.61898,7.8918 -4.03897,-0.1155 -6.7762,-3.089 -6.43972,-8.9651 z"
         style="fill:#000000;fill-opacity:1;stroke:none" />
      <path
         sodipodi:nodetypes="cccccsssssc"
         inkscape:connector-curvature="0"
         id="path5716-4-7-9"
         d="m -410.01661,1877.6484 c 15.7865,-6.8107 27.2594,-12.6571 43.0358,-15.1786 -2.8688,1.2193 -5.2845,2.7103 -6.9643,4.6429 3.3333,-1.8371 6.6666,-2.6193 10,-3.0357 -1.7232,0.8371 -3.6471,1.4233 -4.4643,3.3928 4.1089,-1.5097 8.2707,-2.687 12.8571,-2.1428 5.8861,0.6983 9.266,3.2762 13.5715,6.6071 3.607,2.7907 11.5158,9.1337 10.7142,13.5714 -0.2288,1.2671 -8.6144,-0.9429 -12.1428,-3.0357 -6.4631,-3.8334 -14.1756,-5.3158 -21.6072,-6.4285 -14.5996,-2.186 -45,1.6071 -45,1.6071 z"
         style="fill:#532e17;fill-opacity:1;stroke:none" />
      <path
         sodipodi:nodetypes="ccsccsc"
         inkscape:connector-curvature="0"
         id="path5626-1-1-3"
         d="m -381.20351,1894.3747 1.8625,-0.2841 c 0.5099,1.5062 1.2771,3.1839 2.8095,2.7464 1.2677,-0.3621 0.8485,-2.1322 0.8839,-3.3777 l 3.7249,-0.032 c 0.893,4.27 0.119,8.1741 -3.5987,8.7125 -6.5456,0.9479 -5.9777,-5.1671 -5.6821,-7.7655 z"
         style="fill:#000000;fill-opacity:1;stroke:#000000;stroke-width:1px;stroke-linecap:butt;stroke-linejoin:miter;stroke-opacity:1" />
      <path
         sodipodi:nodetypes="scsssscsssss"
         inkscape:connector-curvature="0"
         id="path5634-5-3-8"
         d="m -299.65942,1909.5234 c 1.0285,1.9566 8.03571,0.5357 8.03571,0.5357 0.006,0.1366 -1.51568,-1.0852 -0.35714,-3.0357 1.2593,-2.1201 4.00519,-3.2046 6.42857,-3.6607 5.64614,-1.0627 11.73983,0.3154 17.05357,2.5 2.46096,1.0117 6.52702,3.1991 6.42858,4.7321 -0.12123,1.8878 -5.53572,1.25 -5.53572,1.25 4.095,1.6319 6.34978,1.7841 9.33036,1.2054 3.72961,-0.7241 1.03037,-2.7832 0.3125,-3.7947 -2.60912,-3.6762 -8.39629,-8.6199 -19.30552,-9.2997 -8.79877,-0.5482 -12.07556,1.8548 -15.87305,3.6747 -3.03234,1.4533 -7.11628,4.7545 -6.51786,5.8929 z"
         style="fill:#3d1903;fill-opacity:1;stroke:none" />
      <path
         sodipodi:nodetypes="scccss"
         inkscape:connector-curvature="0"
         id="path5636-3-3-03"
         d="m -293.16238,1917.7345 c 11.86094,5.7781 19.21827,5.62 28.03174,7.5761 -8.90934,0.5735 -13.34824,1.0128 -24.1174,-1.6415 0,0 5.09395,4.0667 15.40483,7.8287 -12.0587,-0.8523 -32.3394,-14.8132 -29.29442,-16.415 3.40298,-1.79 6.84863,1.1285 9.97525,2.6517 z"
         style="fill:#693c1d;fill-opacity:1;stroke:none" />
      <path
         sodipodi:nodetypes="cscsc"
         inkscape:connector-curvature="0"
         id="path5638-2-3-2"
         d="m -298.97075,1902.961 c 13.38379,-7.4543 27.39723,-12.9432 44.82552,5.6821 1.61857,1.7298 3.17002,2.9197 5.17703,3.5355 -4.82378,-7.7838 -16.47848,-17.0034 -26.76904,-17.8039 -8.3508,-0.6496 -16.25811,2.3886 -23.23351,8.5863 z"
         style="fill:#683b1d;fill-opacity:1;stroke:none" />
      <path
         sodipodi:nodetypes="ccsc"
         inkscape:connector-curvature="0"
         id="path5640-8-0-58"
         d="m -290.70013,1913.3782 c 5.38889,3.6745 18.11848,4.6583 23.10724,3.1567 0,0 -3.15113,3.9558 -8.46003,3.6618 -8.1577,-0.4517 -14.64721,-6.8185 -14.64721,-6.8185 z"
         style="fill:#693c1d;fill-opacity:1;stroke:none" />
      <path
         sodipodi:nodetypes="cssscssc"
         inkscape:connector-curvature="0"
         id="path5646-1-4-57"
         d="m -374.83801,1999.6127 c 0,0 5.8519,-0.1556 8.75,0.1786 10.8205,1.2476 21.1501,5.4846 31.9643,6.7857 5.8533,0.7042 11.8331,1.4474 17.50001,-0.1786 6.12103,-1.7563 17.45535,-2.1875 17.45535,-2.1875 0,0 -12.35419,11.6425 -20.3125,13.4375 -11.34356,2.5586 -23.73936,-0.065 -34.64286,-4.1071 -7.8018,-2.8921 -20.7143,-13.9286 -20.7143,-13.9286 z"
         style="fill:#9f4e3b;fill-opacity:1;stroke:none" />
      <path
         sodipodi:nodetypes="csscc"
         inkscape:connector-curvature="0"
         id="path5648-9-8-90"
         d="m -359.30231,2004.4341 c 1.606,3.1595 7.9634,7.3132 12.5,8.75 7.663,2.427 15.2067,3.4894 24.10718,1.7857 3.81385,-0.73 12.03379,-5.35 14.10714,-6.9643 -18.56522,2.4567 -47.27902,-4.3777 -50.71432,-3.5714 z"
         style="fill:#bf625a;fill-opacity:1;stroke:none" />
      <path
         sodipodi:nodetypes="cssscsssc"
         inkscape:connector-curvature="0"
         id="path5650-4-7-38"
         d="m -382.69511,1991.9341 c 5.1038,0.366 11.9061,-2.6142 19.2857,-3.5714 12.8069,-1.6612 19.4229,1.4298 30.1786,2.8571 6.8138,0.9042 13.03568,-0.7143 18.74996,0.1786 6.15133,0.9611 27.28396,6.767 25.89286,6.0714 0,0 -12.50941,-9.9833 -19.82143,-12.3214 -8.50741,-2.7203 -17.17729,-0.4308 -26.07139,-1.25 -7.2014,-0.6633 -14.3064,-4.6474 -21.4286,-3.3929 -6.7681,1.1922 -22.8783,3.7427 -26.7857,11.4286 z"
         style="fill:#73301d;fill-opacity:1;stroke:none" />
      <path
         sodipodi:nodetypes="ccscscsscccccccccc"
         inkscape:connector-curvature="0"
         id="path5652-7-3-99"
         d="m -373.23081,1998.5413 c 0,0 -8.3355,-1.7644 -9.2858,-5.1786 -2.6937,-2.7005 16.789,-6.0672 23.75,-6.7857 9.1508,-0.9446 18.0879,2.9632 26.7858,4.1071 5.0911,0.5841 10.25443,-1.1876 15.3571,-0.7143 8.5251,0.7909 25,5.8929 25,5.8929 0,0 4.49309,1.0461 4.64286,2.8571 0.27097,3.2766 -4.26853,5.601 -7.43687,6.479 -1.65484,0.4587 -5.07211,-0.9018 -5.07211,-0.9018 2.9074,-6.7965 0.0717,-7.5502 -2.79586,-6.5208 -0.98024,-4.5625 -7.71428,-4.3234 -8.51727,0.051 -0.0117,-3.7215 -7.29407,-7.7886 -8.49932,1.0714 -1.40123,-6.7192 -11.89513,-12.487 -14.28573,0 -2.0845,-13.5083 -12.0502,-9.4896 -13.5714,-3.0357 -1.4532,-8.2586 -8.5439,-7.2105 -10,-1.6071 -0.6185,-5.5606 -7.3121,-6.2606 -9.2857,-0.1786 -4.2888,-5.3564 -6.7465,1.2092 -6.7857,4.4643 z"
         style="fill:#2a0d00;fill-opacity:1;stroke:none" />
      <path
         sodipodi:nodetypes="cssccsccsccc"
         inkscape:connector-curvature="0"
         id="path5676-1-7-5"
         d="m -355.41301,1938.1901 c -5.4588,0.8422 -9.8329,1.4392 -17.6777,9.3439 -15.29172,15.4086 -20.95619,19.0859 -22.8547,23.1704 -3.63521,7.821 -3.727,16.4202 0.6314,25.0644 -0.5128,-19.9909 8.9352,-26.4833 16.1624,-36.6181 -7.9561,14.6712 -15.7804,32.8464 -11.238,35.9867 1.8679,1.2914 4.8173,-4.2141 7.4499,-3.6618 3.2724,-1.3019 3.97,-2.8379 5.5559,-4.2931 -2.4418,-0.8268 -6.7944,1.8128 -6.8186,0.2525 -0.2416,-15.5918 11.8814,-24.2843 17.1726,-35.8604 2.868,4.5222 6.6085,5.5541 10.1015,7.5761 -5.0129,-5.3314 -12.8739,-9.8085 1.5153,-20.9606 z"
         style="fill:#a05e3b;fill-opacity:1;stroke:none" />
      <path
         sodipodi:nodetypes="cccsscsccsc"
         inkscape:connector-curvature="0"
         id="path5678-6-9-79"
         d="m -302.87371,1962.6484 c 6.65917,-1.4134 4.51553,-11.2329 -1.78571,-19.8214 4.1217,5.9916 10.52852,11.5205 9.10714,20.7143 l 11.60715,20 c 3.3179,5.7169 4.63226,10.4416 5.17857,15.5357 0.40384,3.7655 -0.62038,7.0551 -1.60715,10.3571 0.098,-3.2101 2.26834,-7.4501 -0.53571,-9.4643 -1.20255,-0.8638 -2.8043,0.4234 -5.17857,1.6072 l -11.25,-10.1786 c 3.26236,0.4025 9.31224,2.7467 9.28571,0.7143 -0.14642,-11.2163 -8.49,-20.1487 -14.82143,-29.4643 z"
         style="fill:#6b3a19;fill-opacity:1;stroke:none" />
      <path
         sodipodi:nodetypes="ccc"
         inkscape:connector-curvature="0"
         id="path5680-7-9-6"
         d="m -272.15942,2001.9341 c 7.13045,-17.6459 -5.9824,-21.9993 -13.75,-36.9643 4.19572,16.4591 15.60509,18.2045 13.75,36.9643 z"
         style="fill:#6b3a19;fill-opacity:1;stroke:none" />
      <path
         sodipodi:nodetypes="ccccccssscsssc"
         inkscape:connector-curvature="0"
         id="path5718-6-9-9"
         d="m -311.98085,1886.7555 c -1.36675,-9.562 9.71026,-12.285 15.35714,-15.7142 2.17202,-1.3191 5.62716,-0.2222 9.10715,0 -1.40368,0.8732 -2.19753,2.4154 -2.5,3.5714 1.1372,-1.3254 5.45519,-3.2422 8.21428,-3.75 -0.96693,1.382 -1.39583,2.525 -1.60714,3.5714 2.82273,-1.7668 6.30923,-2.4637 9.82143,-2.1428 4.72084,0.4312 8.88957,3.5688 12.32142,5.9821 3.88459,2.7317 7.26302,4.5509 14.4643,7.8571 4.55914,2.0932 7.80451,4.3159 10.89285,7.2322 0,0 -17.85714,-5.3572 -19.64286,-5.3572 -1.78571,0 -23.39285,-3.2142 -26.42857,-3.0357 -3.03571,0.1786 -25,2.6786 -26.42857,2.6786 -1.42857,0 -3.57143,-0.8929 -3.57143,-0.8929 z"
         style="fill:#532e17;fill-opacity:1;stroke:none" />
      <path
         sodipodi:nodetypes="csssssssscccccccccsscc"
         inkscape:connector-curvature="0"
         id="path5823-7-9-8"
         d="m -314.37558,1909.9058 c -1.36078,9.828 -2.50684,8.0431 -4.92449,11.9956 -1.73923,2.8433 -1.8487,8.255 -0.63135,10.1015 1.21631,1.8449 3.63949,-1.6027 4.79823,-0.3788 3.50357,3.7005 2.4846,8.3804 1.26269,12.5006 -2.34237,7.8984 -5.4629,6.2466 -8.5863,7.3236 -3.27861,1.1305 -4.04311,3.3977 -12.12181,1.6415 -2.843,-0.618 -4.101,-5.1149 -6.9448,-4.1668 -4.3705,1.4569 -6.1745,4.1988 -11.3642,5.4295 -4.6672,1.1068 -6.4047,-1.5923 -9.344,-2.6516 l 4.2932,5.6821 5.4296,2.7779 11.4905,-3.4093 9.4701,5.9347 7.32364,-1.0102 6.56599,-2.3991 14.14214,3.283 4.79822,-5.3033 c 0,0 -6.25123,-1.112 -8.46002,-3.1567 -2.34924,-2.1748 -5.07272,-6.8646 -4.04061,-8.7126 2.46582,-4.415 3.49782,-2.0372 6.06091,-1.894 0.35738,-11.4941 -1.85094,-22.7651 -9.21764,-33.5876 z"
         style="fill:#a06847;fill-opacity:1;stroke:none" />
      <path
         sodipodi:nodetypes="cssccssssc"
         inkscape:connector-curvature="0"
         id="path5708-7-8-9"
         d="m -364.63071,1903.0873 c 4.2212,-1.7437 5.1842,-4.4604 1.0102,-6.9448 -8.827,-5.2538 -23.8843,-1.2128 -27.2741,2.2728 -1.1261,1.158 0.1289,1.5152 2.3991,2.2729 -4.4259,-0.2259 -7.8607,0.2916 -11.3642,0.7576 2.5361,-1.3733 5.446,-1.522 5.9346,-3.283 0.633,-2.2816 9.7441,-7.7153 19.1559,-7.2777 11.6334,0.5409 23.0254,10.061 21.5028,12.0759 -1.0688,1.4142 -2.4309,0.1654 -6.1413,-0.6007 -1.3836,-0.2857 -3.0767,1.1139 -5.223,0.727 z"
         style="fill:#371d0c;fill-opacity:1;stroke:none" />
      <path
         sodipodi:nodetypes="ccc"
         inkscape:connector-curvature="0"
         id="path5710-3-6-3"
         d="m -402.25881,1897.6577 c 27.0372,-18.5595 41.0535,-3.7216 52.0228,0.7576 -8.4595,-11.2325 -35.6965,-20.6526 -52.0228,-0.7576 z"
         style="fill:#603721;fill-opacity:1;stroke:none" />
      <path
         sodipodi:nodetypes="sssss"
         inkscape:connector-curvature="0"
         id="path5712-4-1-6"
         d="m -361.62371,1909.7913 c -7.4753,4.9512 -21.0167,3.121 -32.5,2.6785 -4.8464,-0.1867 8.0637,-4.9731 9.2857,-4.2857 6.4644,3.6366 20.1841,-0.3486 20.8929,-0.5357 1.4578,-0.3848 3.1508,1.5935 2.3214,2.1429 z"
         style="fill:#97613f;fill-opacity:1;stroke:none" />
      <path
         sodipodi:nodetypes="ccsc"
         inkscape:connector-curvature="0"
         id="path5722-9-5-7"
         d="m -445.37367,1819.7913 c 7.7155,-14.3035 21.28966,-20.3685 32.14286,-27.5 -11.2098,11.9104 -10.9023,18.6328 -13.2143,17.8571 -5.83946,-1.9593 -18.99386,9.5645 -18.92856,9.6429 z"
         style="fill:#74552f;fill-opacity:1;stroke:none" />
      <path
         sodipodi:nodetypes="sssssssssssssss"
         inkscape:connector-curvature="0"
         id="path5724-5-1-9"
         d="m -427.87371,1813.3627 c 1.2539,-4.4848 -23.03436,27.8163 -18.21426,24.8214 3.9175,-2.4341 10.7301,-10.5966 10.5357,-9.8214 -1.9854,7.916 -4.8621,26.9572 -8.3928,24.6428 0,0 -1.0129,-3.7996 -2.3215,-3.3928 -3.0161,0.9375 -3.3903,11.1884 -3.5714,16.9643 -0.091,2.8859 0.1046,9.3698 1.25,8.5714 2.6361,-1.8374 -0.1089,-17.7539 2.1138,-12.2617 1.2006,2.9668 1.8689,9.9456 -0.8638,16.5474 -0.9996,2.4149 -3.5783,4.4421 -3.9286,6.7857 -0.3841,2.571 6.4223,-2.5794 7.8572,-4.6428 2.5046,-3.6018 6.9215,-9.0531 7.6786,-13.75 0.2619,-1.6254 -4.0389,2.5199 -4.8215,1.0714 -1.8215,-3.3715 1.4781,-4.879 4.4643,-12.6786 2.7381,-7.1514 1.9601,-20.4881 8.21426,-42.8571 z"
         style="fill:#553b22;fill-opacity:1;stroke:none" />
      <path
         sodipodi:nodetypes="ccsc"
         inkscape:connector-curvature="0"
         id="path5726-3-0-3"
         d="m -412.23411,1786.9197 c -11.2527,2.4925 -22.16826,5.3943 -28.78936,13.5108 7.4296,-3.7719 14.95676,-7.2408 21.97086,-9.0913 3.5651,-0.9407 5.7271,-2.7775 6.8185,-4.4195 z"
         style="fill:#5c4325;fill-opacity:1;stroke:none" />
      <path
         sodipodi:nodetypes="ccccccssc"
         inkscape:connector-curvature="0"
         id="path5728-4-0-3"
         d="m -420.31531,1778.586 c -2.14,-0.2219 -4.7224,0.5032 -7.5762,2.7779 1.0836,-1.9765 3.9331,-4.465 3.0305,-5.8084 -6.25646,1.966 -14.64316,4.2788 -16.16236,11.1117 2.1787,0.9451 4.7624,-1.8361 9.0913,-2.7779 -2.5994,2.6814 -6.1314,5.2074 -6.0609,8.3337 -0.9499,2.5332 21.46016,-8.824 20.45556,-9.0913 -1.0062,-0.2677 -12.3097,2.1665 -11.1117,1.7677 1.6427,-0.5467 10.392,-5.6273 8.3338,-6.3134 z"
         style="fill:#5c4325;fill-opacity:1;stroke:none" />
      <path
         sodipodi:nodetypes="cccc"
         inkscape:connector-curvature="0"
         id="path5732-2-7-0"
         d="m -433.82607,1771.8937 c 1.7464,-4.9207 25.22136,-0.7457 39.90096,-0.2525 -7.1071,2.7381 -10.6597,6.8091 -15.2785,10.4803 -6.6453,-7.6497 -15.6877,-8.7927 -24.62246,-10.2278 z"
         style="fill:#543822;fill-opacity:1;stroke:none" />
      <path
         sodipodi:nodetypes="ccc"
         inkscape:connector-curvature="0"
         id="path5734-7-7-8"
         d="m -417.15941,1763.452 c 11.1834,6.8424 23.1269,3.2966 35,0.7143 -12.4888,0.1487 -26.2943,0.9172 -35,-0.7143 z"
         style="fill:#543822;fill-opacity:1;stroke:none" />
      <path
         sodipodi:nodetypes="csscssc"
         inkscape:connector-curvature="0"
         id="path5736-1-3-2"
         d="m -308.81974,1725.8055 c 17.67401,6.8771 14.45385,26.2691 26.1377,45.4569 2.22911,3.6607 -7.5812,1.6361 -7.95495,-1.2627 -1.64646,-12.7703 -5.3033,-18.772 -7.95496,-28.158 0.88163,9.4524 3.02911,20.2182 2.52539,28.158 -0.14059,2.2161 -6.25523,0.8042 -6.9448,-3.283 -2.29803,-13.6211 4.82707,-28.9579 -5.80838,-40.9112 z"
         style="fill:#60482c;fill-opacity:1;stroke:none" />
      <path
         sodipodi:nodetypes="ccccccccccccccc"
         inkscape:connector-curvature="0"
         id="path5738-1-2-5"
         d="m -305.73085,1768.8984 c -0.59358,-11.0676 0.8529,-22.2711 -2.94643,-33.125 l 1.33929,-1.9643 c -2.62108,-4.2239 -4.73737,-8.4057 -10.08929,-12.8571 2.05146,4.4345 5.44518,8.869 5.35715,13.3035 -3.51623,-5.9225 -9.06297,-10.553 -15.17858,-14.8214 2.97126,4.8433 8.41107,9.251 7.76786,14.7322 -2.71874,-4.0932 -6.76536,-7.9208 -10.62496,-11.7858 15.57692,20.8255 3.7125,29.2183 1.9642,42.0536 l 5.8929,2.1429 c 0.21982,-4.8185 0.85734,-10.6116 2.5,-18.75 1.51631,5.2146 0.51527,10.4174 0.53572,15.625 4.1542,-6.3465 5.66316,-15.6322 4.64286,-27.2322 4.15279,9.2365 3.41337,18.9623 2.94642,28.6607 z"
         style="fill:#60482c;fill-opacity:1;stroke:none" />
      <path
         sodipodi:nodetypes="scccccscccs"
         inkscape:connector-curvature="0"
         id="path5740-2-6-6"
         d="m -332.87371,1722.4698 c -4.497,0.9367 -9.5724,2.0505 -14.4643,3.3929 1.6508,-2.2897 5.3515,-4.2865 10.5357,-6.0714 -8.5617,1.9676 -16.6715,3.4336 -28.5714,9.1071 3.063,-3.8095 8.0701,-7.619 14.4643,-11.4286 -14.301,3.3624 -28.127,7.6746 -41.9643,11.9643 14.3317,-6.6573 29.186,-13.0442 46.4286,-14.8214 3.899,-0.4019 6.6983,-0.254 10,-0.3572 -3.6842,0.6016 -6.7898,1.7817 -9.4643,3.3929 7.8411,-1.414 15.1121,-2.0441 21.60713,-1.6071 -2.66693,2.7136 -5.25103,5.737 -8.57143,6.4285 z"
         style="fill:#47321d;fill-opacity:1;stroke:none" />
      <path
         sodipodi:nodetypes="cccccccsssccc"
         inkscape:connector-curvature="0"
         id="path5742-1-6-5"
         d="m -340.38701,1726.6894 c 5.8289,6.7564 5.2804,17.9116 6.9448,27.4004 2.667,-7.1968 4.4054,-14.7915 2.3991,-23.9911 4.5019,3.033 4.4243,12.9353 2.9042,25.0012 l -2.2728,5.0508 -1.0102,4.7982 c -1.6939,-0.7237 -1.8262,-3.92 -2.1466,-6.8185 -0.4623,2.1044 0.072,4.1953 -1.3889,6.3134 -0.4676,0.6777 -3.3419,1.0548 -4.7983,-0.505 -0.7071,-0.7573 0.081,-6.4302 -0.6313,-9.7227 -2.107,-9.7388 -7.1501,-18.0172 -10.7329,-27.0216 4.3853,4.2177 8.373,9.1243 10.9854,16.415 1.4551,-5.4992 0.8945,-11.1828 -0.2525,-16.9201 z"
         style="fill:#634b31;fill-opacity:1;stroke:none" />
      <path
         sodipodi:nodetypes="ccscscccccccsc"
         inkscape:connector-curvature="0"
         id="path5744-3-8-80"
         d="m -410.08751,1748.5339 c 12.9235,5.7219 24.4279,10.5581 36.2392,15.6574 2.1271,-1.9895 -17.3177,-11.4401 -15.6574,-11.1117 2.1094,0.4174 18.309,6.9448 18.309,6.9448 -2.9966,-4.9671 -9.9707,-7.7735 -18.814,-9.849 -1.5106,-0.3545 -2.2555,-1.4585 -2.5254,-2.3991 7.0294,1.6423 14.0797,3.3266 22.0971,6.9448 -2.7347,-4.6134 -9.9429,-7.5709 -16.1625,-10.7328 4.2377,0.6657 8.6431,1.779 13.3845,3.788 -5.7167,-6.3938 -14.4509,-6.4289 -22.2233,-8.7125 0.3567,1.2268 2.0182,2.1129 1.894,3.788 -4.1466,-0.6063 -8.3142,-1.108 -12.6269,-0.8838 0.4288,-0.1226 5.3928,5.9626 4.2932,5.3033 -0.4,-0.2398 -7.838,-0.092 -8.2075,1.2626 z"
         style="fill:#533d25;fill-opacity:1;stroke:none" />
      <path
         sodipodi:nodetypes="ccccssccccccccccccc"
         inkscape:connector-curvature="0"
         id="path5746-5-8-2"
         d="m -381.98081,1734.2555 c 7.423,8.2283 15.1329,16.227 21.4285,25.3572 -1.1905,-3.9641 -2.3809,-7.8475 -3.5714,-12.5 -0.3698,-2.1492 -0.061,-3.9591 0,-5.8929 5.1165,5.8346 8.7458,12.5597 9.6429,20.3572 0.3122,2.7139 4.927,-0.8291 3.97,-2.3106 -4.5112,-6.9838 -6.165,-11.3833 -14.2532,-23.2124 6.8854,7.5713 12.6102,15.9718 17.0689,25.7015 -0.1016,-4.2892 -0.01,-8.284 0.8928,-11.0714 1.7653,3.1324 2.6234,7.1185 3.5715,11.0714 1.9812,-6.9573 -3.0218,-14.1546 -4.8215,-18.9285 -0.3283,-5.9497 -4.6852,-11.4989 -7.6785,-16.7857 1.6265,4.9464 3.2848,9.9353 3.9285,13.5714 -4.25,-4.4562 -8.7949,-7.4381 -13.5497,-9.3705 5.5085,8.1099 15.1003,12.0734 15.956,25.3048 -3.1803,-10.1668 -11.2739,-16.3629 -17.0491,-24.1703 -1.5378,2.002 -0.9594,4.806 1.0714,7.5217 -0.2442,1.7432 -0.5204,3.262 -0.5357,6.6071 -5.1189,-4.8619 -10.2539,-9.6487 -16.0714,-11.25 z"
         style="fill:#634b31;fill-opacity:1;stroke:none" />
      <path
         sodipodi:nodetypes="ccssc"
         inkscape:connector-curvature="0"
         id="path5748-5-0-7"
         d="m -300.19513,1722.4698 c -21.13928,-13.5469 -25.92414,-13.1859 -58.83934,-13.8392 12.03243,-2.3651 21.28949,-1.6202 33.12506,0.089 8.02967,1.1597 16.18328,4.3396 23.0357,8.2143 1.78439,1.009 3.93608,3.9168 2.67858,5.5357 z"
         style="fill:#3c2b17;fill-opacity:1;stroke:none" />
      <path
         sodipodi:nodetypes="ssscscsscsssccccccccs"
         inkscape:connector-curvature="0"
         id="path5750-8-8-7"
         d="m -260.73085,1780.1484 c -3.95552,-32.5223 -15.71939,-38.9223 -19.82514,-46.2844 -8.38221,-15.0301 -15.52656,-29.7729 -35.71057,-34.4299 -8.98555,-2.0732 -18.83925,0.8036 -18.83925,0.8036 0,0 14.54316,1.1209 20.53567,3.8393 2.30109,1.0438 5.80358,4.4643 5.80358,4.4643 -10.74808,-4.8344 -19.08865,-5.1449 -28.39285,-6.25 -3.3018,-0.3922 -5.6657,0.2494 -10.5357,0.5357 -6.0635,0.3565 -12.2069,-0.5629 -17.5893,3.4821 5.2024,-0.9162 10.2735,-1.4545 15.8036,-0.9821 5.4232,0.4632 10.9425,-1.054 16.25,-0.1786 8.14393,1.3433 16.47523,3.0737 24.82139,5.5357 14.74154,4.3486 22.44043,13.1795 21.60714,27.8572 5.71459,12.8291 6.91435,25.1271 8.75,37.5 l 4.46429,2.6785 c -1.35958,-7.7152 -2.93983,-15.3915 -5.71429,-22.8571 4.30856,7.215 5.50972,14.682 6.78572,22.1428 l 6.60714,1.6072 c 0.1506,-2.8906 -2.01624,-5.2662 -3.21429,-7.8572 2.89413,2.634 5.16497,5.4461 5.71429,8.75 0,0 2.78732,0.5371 2.67857,-0.3571 z"
         style="fill:#584324;fill-opacity:1;stroke:none" />
      <path
         sodipodi:nodetypes="ccc"
         inkscape:connector-curvature="0"
         id="path5752-7-9-9"
         d="m -241.6446,1800.8093 c 10.62261,7.1391 26.2569,33.4311 24.74874,33.7139 -3.07333,-12.0449 -0.69145,-35.649 -24.74874,-33.7139 z"
         style="fill:#6e5433;fill-opacity:1;stroke:none" />
      <path
         sodipodi:nodetypes="cscsc"
         inkscape:connector-curvature="0"
         id="path5754-0-6-8"
         d="m -238.23533,1810.2795 c 7.48625,10.4704 19.66956,24.5199 19.44544,30.1783 -0.55687,14.0593 -0.9591,22.3402 -1.13643,32.9562 0,-0.061 -2.70924,-26.9586 -6.43972,-37.2493 -3.23503,-8.924 -11.86929,-25.8852 -11.86929,-25.8852 z"
         style="fill:#755d37;fill-opacity:1;stroke:none" />
      <path
         sodipodi:nodetypes="cscccccccc"
         inkscape:connector-curvature="0"
         id="path5766-3-1-9"
         d="m -360.27441,1956.8148 c 0.3766,5.5214 21.7216,25.0443 29.3576,25.5695 6.05639,0.4165 28.28425,-18.9404 28.28425,-18.9404 l -2.27284,-0.5051 -12.12183,-3.283 -10.10158,3.5356 -6.8185,-1.7678 -7.071,-3.7881 -13.3846,2.5254 z"
         style="fill:url(#linearGradient7471-9-2-1);fill-opacity:1;stroke:none" />
      <path
         sodipodi:nodetypes="cssssscsssssc"
         inkscape:connector-curvature="0"
         id="path5764-1-4-4"
         d="m -361.41081,1954.3525 c -0.135,0.045 5.3007,3.8279 9.4702,3.725 4.0082,-0.099 7.6146,-4.0945 11.5536,-3.3462 2.9775,0.5657 4.8353,3.6568 7.1973,5.5559 2.4056,1.9341 7.0359,1.8091 9.34395,-0.3788 3.9322,-3.7276 8.33532,-2.2791 11.86929,-0.6314 11.25812,5.249 13.09117,-0.5113 12.62691,-5.0508 2.25007,8.2975 -3.53676,10.1041 -5.80838,9.7228 -6.11509,-1.0267 -11.87473,-4.895 -18.43528,-0.9471 -4.12589,2.4829 -9.33919,1.1119 -11.04859,-0.063 -2.2434,-1.542 -3.1568,-3.4524 -5.3033,-3.9774 -4.7654,-1.1656 -9.7272,3.5313 -14.3946,2.0203 -3.1289,-1.013 -7.0711,-6.6292 -7.0711,-6.6292 z"
         style="fill:#381408;fill-opacity:1;stroke:none" />
      <path
         sodipodi:nodetypes="csssssscssssc"
         inkscape:connector-curvature="0"
         id="path5776-0-8-88"
         d="m -438.24547,1975.8183 c 0,0 1.7869,28.7356 6.0609,33.335 3.67446,3.9543 12.59766,2.0257 15.80526,6.3673 4.4684,6.0482 15.6669,33.0731 32.1769,43.1302 22.1188,13.4735 51.9111,13.3123 77.27671,8.0812 12.47611,-2.5729 23.17994,-10.9971 33.33503,-18.6878 9.11072,-6.8998 17.56126,-14.9724 24.24366,-24.2437 3.52194,-4.8864 9.59645,-16.1624 9.59645,-16.1624 -6.77564,18.2799 -9.29986,31.5156 -30.74837,48.6352 -10.31742,8.2351 -18.11707,19.7913 -36.93185,26.8737 -9.75568,3.6723 -38.18373,6.5534 -59.49443,-0.7397 -11.497,-3.9346 -28.8452,-9.2857 -50.991,-38.0249 -14.20626,-18.4359 -21.07126,-40.107 -20.32926,-68.5641 z"
         style="fill:url(#linearGradient7473-8-9-1);fill-opacity:1;stroke:none" />
      <path
         sodipodi:nodetypes="cscsc"
         inkscape:connector-curvature="0"
         id="path5788-6-8-3"
         d="m -404.91051,2052.0848 c 25.0953,23.7529 48.5532,61.1373 87.63074,57.5787 10.42908,-0.9498 28.62783,-32.0267 44.19418,-52.2754 -19.12292,12.8693 -27.06926,37.4987 -76.77162,27.0216 -24.2905,-5.1204 -38.9969,-17.7799 -55.0533,-32.3249 z"
         style="fill:#5a351b;fill-opacity:1;stroke:none" />
      <path
         sodipodi:nodetypes="cssccsscc"
         inkscape:connector-curvature="0"
         id="path5817-2-2-3"
         d="m -446.44507,1894.7913 c 0,0 15.8386,-0.074 22.49996,3.5714 5.6587,3.0971 8.1527,10.0504 12.8571,14.4643 4.0204,3.7721 11.6964,12.4107 11.6964,12.4107 -0.8345,6.1906 0.6371,10.0523 -4.7321,16.6964 0,0 0.2029,-7.795 -2.5,-9.8214 -6.8238,-5.1161 -11.1515,-13.6353 -17.1429,-19.2857 -4.6739,-4.4081 -18.74996,-4.4643 -18.74996,-4.4643 z"
         style="fill:#855831;fill-opacity:1;stroke:none" />
      <path
         sodipodi:nodetypes="cssccc"
         inkscape:connector-curvature="0"
         id="path5819-4-6-5"
         d="m -404.30231,1941.3984 c 0.3827,1.1466 -0.525,3.9046 1.25,3.3929 14.2828,-4.1182 23.376,1.4469 34.6429,-0.5358 15.5256,-2.7321 18.0565,-10.4905 17.5,-16.6071 -20.3651,5.6927 -42.7167,4.8172 -48.8839,-2.5 -3.3768,8.314 -2.8099,11.5313 -4.509,16.25 z"
         style="fill:#a3663f;fill-opacity:1;stroke:none" />
      <path
         sodipodi:nodetypes="sssssssssssss"
         inkscape:connector-curvature="0"
         id="path5836-3-1-5"
         d="m -468.76657,1936.0413 c 3.6867,0.7386 7.3123,-14.1542 12.6786,-11.6072 3.2873,1.5603 3.2416,8.275 0.7143,10.8929 -1.3649,1.4138 -2.6587,-0.2568 -4.1071,1.0714 -3.5871,3.2891 3.1223,26.2223 4.1071,19.8214 0.4902,-3.1865 0.2087,-7.0263 6.7857,-10.0893 2.3077,-1.0747 0.2553,-6.5548 3.2143,-13.8392 0.8577,-2.1116 -3.0488,-3.3924 -4.4643,-5.1786 -1.0057,-1.2691 -1.7974,-2.7043 -2.8571,-3.9286 -3.5447,-4.095 -5.3033,-9.0327 -8.75,-11.6071 -2.7677,-2.0672 -8.8569,-3.4688 -10.3572,-0.3572 -1.7162,3.5596 -0.4333,8.0667 0.5357,12.3215 0.7606,3.339 -0.5747,11.8839 2.5,12.5 z"
         style="fill:#854428;fill-opacity:1;stroke:none" />
      <path
         sodipodi:nodetypes="ccc"
         inkscape:connector-curvature="0"
         id="path5838-4-1-1"
         d="m -468.00367,1948.6691 c 3.5051,6.1689 7.1392,11.6603 8.5229,12.9079 -4.9269,5.8138 -8.5209,-8.6025 -8.5229,-12.9079 z"
         style="fill:#9c6c3e;fill-opacity:1;stroke:none" />
      <path
         sodipodi:nodetypes="ccsc"
         inkscape:connector-curvature="0"
         id="path5842-3-5-63"
         d="m -446.62367,1954.7913 c 1.5653,4.6091 2.1832,9.0713 0.3125,13.1473 0,0 5.0735,-3.7707 5.0446,-6.5179 -0.03,-2.841 -5.3571,-6.6294 -5.3571,-6.6294 z"
         style="fill:#9c6c3e;fill-opacity:1;stroke:none" />
      <path
         sodipodi:nodetypes="ccssc"
         inkscape:connector-curvature="0"
         id="path5846-0-0-1"
         d="m -220.93647,1946.2713 c 8.00649,-1.0328 8.02964,8.5001 8.83884,16.1624 1.26033,-3.7909 2.99551,-7.012 3.15672,-12.1218 0.13167,-4.1733 6.25152,-16.2238 3.283,-17.4251 -5.90601,-2.3902 -15.27856,13.3845 -15.27856,13.3845 z"
         style="fill:#552517;fill-opacity:1;stroke:none" />
      <path
         sodipodi:nodetypes="sssss"
         inkscape:connector-curvature="0"
         id="path5848-2-1-90"
         d="m -226.80228,1951.7555 c -1.9269,3.9534 4.39232,6.2076 1.69643,15.625 -0.90549,3.1631 1.37361,6.5105 4.28572,6.5179 2.93453,0.01 3.85125,-2.5699 3.48214,-5.2679 -1.29486,-9.4646 -5.71783,-24.5614 -9.46429,-16.875 z"
         style="fill:#6f371e;fill-opacity:1;stroke:none" />
      <path
         sodipodi:nodetypes="ssss"
         inkscape:connector-curvature="0"
         id="path5850-2-6-80"
         d="m -230.1197,1971.1855 c -4.02572,-2.21 -0.79688,5.8805 -6.28215,11.7648 -1.54187,1.654 3.67594,5.5178 6.62481,2.7413 3.65011,-3.4368 1.8255,-13.3158 -0.34266,-14.5061 z"
         style="fill:#774d25;fill-opacity:1;stroke:none" />
      <path
         inkscape:connector-curvature="0"
         id="path5682-7-0-5"
         d="m -380.43171,1874.0987 c -2.2975,0 -4.633,0.049 -7,0.1563 -8.9695,0.4058 -21.5216,0.9754 -30.625,2.8437 -1.5625,0.3207 -5.7305,-0.2102 -6.5938,0.625 -0.8048,0.7787 -25.38536,15.1058 -26.43746,15.625 l -3.2187,7.5 4.6562,0.1875 c 9.9714,-6.98 20.73916,-13.702 25.53126,-13.5625 4.7605,0.1386 5.0452,8.4776 6.0625,13.375 1.4422,6.9431 1.6001,14.6744 5.5312,18.75 14.6367,15.1751 46.2871,12.9495 56.9688,10.9063 12.8928,-2.4662 19.4246,-24.986 24.125,-39.4688 2.4702,-2.8136 11.96723,-2.0196 15.68747,0.375 3.18747,14.3694 1.84055,29.4296 10.375,36.9375 17.02134,14.9739 51.44854,13.4744 60,9.3125 5.58281,-2.717 9.85189,-15.062 12.5,-22.1562 2.40608,-6.4459 3.6277,-8.6447 8.75,-10.3438 0.0286,-3.0963 0.34611,-6.7512 0.1875,-8.5937 -1.99518,-0.069 -4.03295,0.2489 -6.09375,-0.875 -4.43926,-2.4212 -10.11049,-5.5796 -16.78125,-7.5 -19.52929,-5.6223 -41.80422,-5.6686 -63.03125,-2.1563 -8.98835,-1.438 -18.77042,-1.7455 -26.68752,-1.25 -13.391,-7.7357 -27.8236,-10.6522 -43.9062,-10.6875 z m -6.2813,2.1875 c 18.2728,-0.095 40.9669,4.2539 47.9688,10.375 4.2561,3.7208 -3.7565,34.3923 -16.6563,40.2813 -16.237,7.4124 -47.4365,-0.011 -54.8125,-8.6875 -4.2621,-5.0137 -3.7119,-19.481 -2.1562,-29.0625 0.76,-4.6813 4.2937,-9.8536 9.5937,-11.2188 4.3657,-1.1245 9.9716,-1.6558 16.0625,-1.6875 z m 100.09377,9.6563 c 14.6094,0.066 32.28752,2.7606 38.53125,5.5312 3.61175,1.6027 10.04141,3.0357 10.875,9.4688 0.35694,2.7546 0.65259,29.9024 -9.46875,34.7187 -9.03907,4.3014 -41.7771,5.0892 -55.3125,-7.6875 -8.79981,-8.3065 -8.38973,-25.5206 -6.3125,-36.25 0.83054,-4.2899 10.32463,-5.8328 21.6875,-5.7812 z"
         style="fill:#351500;fill-opacity:1;stroke:none" />
      <path
         sodipodi:nodetypes="ccccccscccc"
         inkscape:connector-curvature="0"
         id="path6192-7-9-3"
         d="m -441.78107,2067.2371 -27.2741,60.6091 c 16.2041,39.034 47.78386,68.9449 77.78176,115.1574 26.0347,-21.6967 45.2456,-50.0615 66.16496,-78.7919 l 10.6066,0 c 34.19782,14.1757 35.20002,44.1541 44.95179,72.2259 8.12092,-39.9407 3.08459,-56.7902 3.03046,-84.8528 -0.0126,-6.5045 -10.84332,-34.8186 -11.11168,-35.3553 -9.30582,16.3031 -19.40823,32.1283 -35.35534,44.4467 l -11.11168,1.0101 c -42.24671,-27.6709 -106.91847,-54.5169 -117.68277,-94.4492 z"
         style="fill:#cfb795;fill-opacity:1;stroke:none" />
      <path
         sodipodi:nodetypes="csscccc"
         inkscape:connector-curvature="0"
         id="path6196-6-7-2"
         d="m -346.08801,2191.0413 c 6.8185,14.5614 10.0441,43.7328 15.5357,48.5714 4.4585,3.9283 33.95851,-6.5192 39.46432,-5.1786 5.20028,1.2662 3.51328,-37.0013 3.57143,-55.7143 l -22.85715,-13.9285 -18.2143,-0.3572 z"
         style="fill:#441f14;fill-opacity:1;stroke:none" />
      <path
         sodipodi:nodetypes="cccscc"
         inkscape:connector-curvature="0"
         id="path6198-8-5-3"
         d="m -336.98081,2176.9341 c 17.39873,15.3291 14.32899,40.6465 19.82139,61.7857 l -9.46429,1.9643 c -0.2478,-0.1524 -5.2144,-36.7476 -5.7143,-47.8571 -0.1194,-2.6538 -12.3214,-10 -12.3214,-10 z"
         style="fill:#c8ac7c;fill-opacity:1;stroke:none" />
      <path
         sodipodi:nodetypes="cccscc"
         inkscape:connector-curvature="0"
         id="path6200-2-2-6"
         d="m -311.26656,2162.2913 c 20.90935,21.5086 16.905,47.9999 20.17857,73.0357 1.95823,-1.0123 3.45578,-3.6998 4.10714,-9.4643 0,0 -0.54934,-28.0334 -4.82143,-40.7143 -3.01559,-8.9512 -13.75,-23.2143 -13.75,-23.2143 z"
         style="fill:#c8ac7c;fill-opacity:1;stroke:none" />
      <path
         sodipodi:nodetypes="ccccc"
         inkscape:connector-curvature="0"
         id="path6202-1-8-7"
         d="m -327.69511,2238.1841 c -9.9969,46.2694 -10.3425,87.4292 -12.6786,129.6429 31.86044,25.1954 53.32029,55.7067 63.75258,91.8543 20.12611,-103.7125 6.77889,-139.2345 -15.65736,-228.2944 z"
         style="fill:#431f13;fill-opacity:1;stroke:none" />
      <path
         id="path6204-2-5-2"
         d="m -327.65051,2264.13 c -1.5262,0.019 -3.1316,0.1173 -4.8125,0.2812 -0.4438,2.9451 -0.8676,5.8687 -1.25,8.7813 8.4774,-0.4307 19.69958,2.6388 29.40627,2.5 6.78707,-0.097 18.8683,-2.1556 22.71875,-2.3125 -0.72901,-2.9136 -1.48139,-5.8539 -2.25,-8.875 -6.27645,-0.6944 -14.20049,2.9388 -18.84375,2.9687 -6.08635,0.039 -13.41182,-3.4851 -24.96877,-3.3437 z m -9.3125,41.0937 c -0.2168,2.8783 -0.4076,5.7317 -0.5937,8.5938 l 65.40622,1.6875 c -0.51466,-2.791 -1.04696,-5.6093 -1.625,-8.4375 -2.02995,-0.06 -58.94132,-1.7372 -63.18752,-1.8438 z m -2.3125,40.8438 c -0.1521,3.2044 -0.3116,6.4178 -0.4687,9.625 l 72.56247,0.3437 c -0.16456,-3.0179 -0.37081,-6.0074 -0.625,-8.9687 l -71.46877,-1 z m 21.21877,42.0312 c 2.92067,3.0748 5.68001,6.2315 8.34375,9.4375 l 41.96875,-0.5625 c 0.21096,-2.8121 0.39036,-5.5657 0.53125,-8.2812 l -50.84375,-0.5938 z m 46.71875,40.6563 -17.53125,0.125 c 1.31842,2.5534 2.56313,5.1293 3.75,7.75 l 12.5625,0.094 c 0.43409,-2.7034 0.83648,-5.3599 1.21875,-7.9688 z"
         style="fill:#ceb189;fill-opacity:1;stroke:none"
         inkscape:connector-curvature="0" />
      <path
         sodipodi:nodetypes="ccccccc"
         inkscape:connector-curvature="0"
         id="path6235-6-9-3"
         d="m -330.0023,2239.8009 c 10.77799,-5.2876 36.89878,-6.2255 41.49066,-7.5901 -0.45196,1.2618 -0.95133,2.515 -2.3663,3.6018 1.98241,5.9599 3.64374,11.8958 4.67831,18.4876 -12.75016,-11.9808 -15.36373,1.0664 -17.82189,13.5784 -5.14833,-9.447 -0.51714,-20.3327 -2.0203,-28.9156 -7.98683,0.2793 -18.69521,3.6313 -23.96048,0.8379 z"
         style="fill:#2d1400;fill-opacity:1;stroke:none" />
    </g>
  </g>
</svg>
