<?xml version="1.0" encoding="UTF-8" standalone="no"?>
<!-- Created with Inkscape (http://www.inkscape.org/) -->

<svg
   xmlns:dc="http://purl.org/dc/elements/1.1/"
   xmlns:cc="http://creativecommons.org/ns#"
   xmlns:rdf="http://www.w3.org/1999/02/22-rdf-syntax-ns#"
   xmlns:svg="http://www.w3.org/2000/svg"
   xmlns="http://www.w3.org/2000/svg"
   xmlns:sodipodi="http://sodipodi.sourceforge.net/DTD/sodipodi-0.dtd"
   xmlns:inkscape="http://www.inkscape.org/namespaces/inkscape"
   width="1627.4135"
   height="1627.4133"
   id="svg4266"
   version="1.1"
   inkscape:version="0.48.4 r9939"
   sodipodi:docname="a1.svg">
  <defs
     id="defs4268" />
  <sodipodi:namedview
     id="base"
     pagecolor="#ffffff"
     bordercolor="#666666"
     borderopacity="1.0"
     inkscape:pageopacity="0.0"
     inkscape:pageshadow="2"
     inkscape:zoom="0.35"
     inkscape:cx="813.7067"
     inkscape:cy="813.70663"
     inkscape:document-units="px"
     inkscape:current-layer="layer1"
     showgrid="false"
     fit-margin-top="0"
     fit-margin-left="0"
     fit-margin-right="0"
     fit-margin-bottom="0"
     inkscape:window-width="472"
     inkscape:window-height="383"
     inkscape:window-x="992"
     inkscape:window-y="669"
     inkscape:window-maximized="0" />
  <metadata
     id="metadata4271">
    <rdf:RDF>
      <cc:Work
         rdf:about="">
        <dc:format>image/svg+xml</dc:format>
        <dc:type
           rdf:resource="http://purl.org/dc/dcmitype/StillImage" />
        <dc:title></dc:title>
      </cc:Work>
    </rdf:RDF>
  </metadata>
  <g
     inkscape:label="Layer 1"
     inkscape:groupmode="layer"
     id="layer1"
     transform="translate(438.70667,281.34441)">
    <g
       id="g4198"
       transform="matrix(0.767092,0.64153711,-0.64153711,0.767092,4165.6403,-2796.717)">
      <path
         transform="translate(290.92393,-60.609153)"
         d="m -1038.4368,5048.5259 c 2.7684,10.3315 -12.5609,8.8288 -17.1716,4.6011 -12.495,-11.4568 -4.2002,-31.1448 7.9693,-38.9445 21.7684,-13.9519 49.82142,-0.8623 60.71737,20.5399 15.99025,31.4086 -2.43109,68.8032 -33.11047,82.4902 -40.8907,18.2426 -87.9001,-5.6969 -104.263,-45.681 -20.591,-50.3158 8.9468,-107.0535 58.2515,-126.0358 59.7147,-22.9901 126.2392,12.1869 147.80869,70.822 25.41891,69.0994 -15.4211,145.4449 -83.39249,169.5815 -78.4758,27.8667 -164.6641,-18.6512 -191.3544,-95.9631 -30.3272,-87.8466 21.8785,-183.8926 108.5336,-213.1271 97.21392,-32.7968 203.12804,25.1037 234.90002,121.1041 35.27291,106.5786 -28.32752,222.3686 -133.67466,256.6728 -115.94136,37.7541 -241.61316,-31.5501 -278.44566,-146.2451 -40.239,-125.3027 34.7718,-260.8608 158.8157,-300.2185 134.66292,-42.7271 280.11089,37.9927 321.99134,171.3862 45.21748,144.0223 -41.2132,299.3631 -183.95677,343.7642 -153.38087,47.7099 -318.61687,-44.4332 -365.53697,-196.5273 -50.204,-162.739 47.6526,-337.8722 209.0978,-387.3099 172.09654,-52.6993 357.12854,50.8719 409.08266,221.6684 55.19593,181.4537 -54.09085,376.3859 -234.23888,430.8555 -190.81058,57.6935 -395.64418,-57.3096 -452.62838,-246.8094 -60.1918,-200.1672 60.5281,-414.9033 259.38,-474.4012 209.52347,-62.6909 434.16287,63.7464 496.17398,271.9505 65.19068,218.8796 -66.96457,453.4231 -284.52099,517.9468 -228.23549,67.691 -472.68379,-70.1826 -539.71969,-297.0915 -70.1917,-237.5913 73.4006,-491.945 309.6621,-561.4925 246.94689,-72.693 511.20649,76.6184 583.2653,322.2326 75.19454,256.3024 -79.83609,530.4684 -334.8031,605.0381 -265.6578,77.6965 -549.7306,-83.0537 -626.811,-347.3736 -80.1987,-275.0131 86.2713,-568.9931 359.9442,-648.5838 284.36824,-82.7012 588.2558,89.4888 670.35662,372.5147 85.20398,293.7233 -92.70625,607.5188 -385.08521,692.1294 -303.07841,87.707 -626.78201,-95.9236 -713.90231,-397.6557 -90.2102,-312.4334 99.141,-646.0454 410.2263,-735.6752 321.78827,-92.7135 665.30886,102.3583 757.44794,422.7968 95.2171,331.1432 -105.57552,684.5727 -435.36732,779.2209 -340.49802,97.7208 -703.83652,-108.7928 -800.99362,-447.9379 -100.2247,-349.8527 112.0099,-723.1004 460.5083,-822.7665 359.20751,-102.7286 742.36462,115.2271 844.53936,473.0789 105.23278,368.5622 -118.44417,761.6288 -485.64943,866.3122 -377.91683,107.737 -780.89313,-121.6613 -888.08503,-498.22 -110.2413,-387.2714 124.8784,-800.1576 510.7905,-909.8578 396.62602,-112.7458 819.42215,128.0954 931.63068,523.361 115.25029,405.9806 -131.31236,838.6868 -535.93155,953.4035 -418.96503,118.7841 -856.92303,-130.8975 -975.17633,-548.5021 -121.3107,-428.4015 134.0325,-876.1658 561.0726,-996.9491"
         sodipodi:t0="0"
         sodipodi:argument="-17.54056"
         sodipodi:radius="817.76202"
         sodipodi:revolution="11.5"
         sodipodi:expansion="1"
         sodipodi:cy="5048.5259"
         sodipodi:cx="-1038.4368"
         id="path3212"
         style="fill:none;stroke:#000000;stroke-width:6.5;stroke-linecap:butt;stroke-linejoin:miter;stroke-miterlimit:4;stroke-opacity:1;stroke-dasharray:none"
         sodipodi:type="spiral" />
      <path
         transform="matrix(0.8660254,0.5,-0.5,0.8660254,2672.4605,1143.7038)"
         d="m -1038.4368,5048.5259 c 2.7684,10.3315 -12.5609,8.8288 -17.1716,4.6011 -12.495,-11.4568 -4.2002,-31.1448 7.9693,-38.9445 21.7684,-13.9519 49.82142,-0.8623 60.71737,20.5399 15.99025,31.4086 -2.43109,68.8032 -33.11047,82.4902 -40.8907,18.2426 -87.9001,-5.6969 -104.263,-45.681 -20.591,-50.3158 8.9468,-107.0535 58.2515,-126.0358 59.7147,-22.9901 126.2392,12.1869 147.80869,70.822 25.41891,69.0994 -15.4211,145.4449 -83.39249,169.5815 -78.4758,27.8667 -164.6641,-18.6512 -191.3544,-95.9631 -30.3272,-87.8466 21.8785,-183.8926 108.5336,-213.1271 97.21392,-32.7968 203.12804,25.1037 234.90002,121.1041 35.27291,106.5786 -28.32752,222.3686 -133.67466,256.6728 -115.94136,37.7541 -241.61316,-31.5501 -278.44566,-146.2451 -40.239,-125.3027 34.7718,-260.8608 158.8157,-300.2185 134.66292,-42.7271 280.11089,37.9927 321.99134,171.3862 45.21748,144.0223 -41.2132,299.3631 -183.95677,343.7642 -153.38087,47.7099 -318.61687,-44.4332 -365.53697,-196.5273 -50.204,-162.739 47.6526,-337.8722 209.0978,-387.3099 172.09654,-52.6993 357.12854,50.8719 409.08266,221.6684 55.19593,181.4537 -54.09085,376.3859 -234.23888,430.8555 -190.81058,57.6935 -395.64418,-57.3096 -452.62838,-246.8094 -60.1918,-200.1672 60.5281,-414.9033 259.38,-474.4012 209.52347,-62.6909 434.16287,63.7464 496.17398,271.9505 65.19068,218.8796 -66.96457,453.4231 -284.52099,517.9468 -228.23549,67.691 -472.68379,-70.1826 -539.71969,-297.0915 -70.1917,-237.5913 73.4006,-491.945 309.6621,-561.4925 246.94689,-72.693 511.20649,76.6184 583.2653,322.2326 75.19454,256.3024 -79.83609,530.4684 -334.8031,605.0381 -265.6578,77.6965 -549.7306,-83.0537 -626.811,-347.3736 -80.1987,-275.0131 86.2713,-568.9931 359.9442,-648.5838 284.36824,-82.7012 588.2558,89.4888 670.35662,372.5147 85.20398,293.7233 -92.70625,607.5188 -385.08521,692.1294 -303.07841,87.707 -626.78201,-95.9236 -713.90231,-397.6557 -90.2102,-312.4334 99.141,-646.0454 410.2263,-735.6752 321.78827,-92.7135 665.30886,102.3583 757.44794,422.7968 95.2171,331.1432 -105.57552,684.5727 -435.36732,779.2209 -340.49802,97.7208 -703.83652,-108.7928 -800.99362,-447.9379 -100.2247,-349.8527 112.0099,-723.1004 460.5083,-822.7665 359.20751,-102.7286 742.36462,115.2271 844.53936,473.0789 105.23278,368.5622 -118.44417,761.6288 -485.64943,866.3122 -377.91683,107.737 -780.89313,-121.6613 -888.08503,-498.22 -110.2413,-387.2714 124.8784,-800.1576 510.7905,-909.8578 396.62602,-112.7458 819.42215,128.0954 931.63068,523.361 115.25029,405.9806 -131.31236,838.6868 -535.93155,953.4035 -418.96503,118.7841 -856.92303,-130.8975 -975.17633,-548.5021 -121.3107,-428.4015 134.0325,-876.1658 561.0726,-996.9491"
         sodipodi:t0="0"
         sodipodi:argument="-17.54056"
         sodipodi:radius="817.76202"
         sodipodi:revolution="11.5"
         sodipodi:expansion="1"
         sodipodi:cy="5048.5259"
         sodipodi:cx="-1038.4368"
         id="path3212-4"
         style="fill:none;stroke:#000000;stroke-width:6.5;stroke-linecap:butt;stroke-linejoin:miter;stroke-miterlimit:4;stroke-opacity:1;stroke-dasharray:none"
         sodipodi:type="spiral" />
      <path
         transform="matrix(0.5,0.8660254,-0.8660254,0.5,4128.8273,3378.2818)"
         d="m -1038.4368,5048.5259 c 2.7684,10.3315 -12.5609,8.8288 -17.1716,4.6011 -12.495,-11.4568 -4.2002,-31.1448 7.9693,-38.9445 21.7684,-13.9519 49.82142,-0.8623 60.71737,20.5399 15.99025,31.4086 -2.43109,68.8032 -33.11047,82.4902 -40.8907,18.2426 -87.9001,-5.6969 -104.263,-45.681 -20.591,-50.3158 8.9468,-107.0535 58.2515,-126.0358 59.7147,-22.9901 126.2392,12.1869 147.80869,70.822 25.41891,69.0994 -15.4211,145.4449 -83.39249,169.5815 -78.4758,27.8667 -164.6641,-18.6512 -191.3544,-95.9631 -30.3272,-87.8466 21.8785,-183.8926 108.5336,-213.1271 97.21392,-32.7968 203.12804,25.1037 234.90002,121.1041 35.27291,106.5786 -28.32752,222.3686 -133.67466,256.6728 -115.94136,37.7541 -241.61316,-31.5501 -278.44566,-146.2451 -40.239,-125.3027 34.7718,-260.8608 158.8157,-300.2185 134.66292,-42.7271 280.11089,37.9927 321.99134,171.3862 45.21748,144.0223 -41.2132,299.3631 -183.95677,343.7642 -153.38087,47.7099 -318.61687,-44.4332 -365.53697,-196.5273 -50.204,-162.739 47.6526,-337.8722 209.0978,-387.3099 172.09654,-52.6993 357.12854,50.8719 409.08266,221.6684 55.19593,181.4537 -54.09085,376.3859 -234.23888,430.8555 -190.81058,57.6935 -395.64418,-57.3096 -452.62838,-246.8094 -60.1918,-200.1672 60.5281,-414.9033 259.38,-474.4012 209.52347,-62.6909 434.16287,63.7464 496.17398,271.9505 65.19068,218.8796 -66.96457,453.4231 -284.52099,517.9468 -228.23549,67.691 -472.68379,-70.1826 -539.71969,-297.0915 -70.1917,-237.5913 73.4006,-491.945 309.6621,-561.4925 246.94689,-72.693 511.20649,76.6184 583.2653,322.2326 75.19454,256.3024 -79.83609,530.4684 -334.8031,605.0381 -265.6578,77.6965 -549.7306,-83.0537 -626.811,-347.3736 -80.1987,-275.0131 86.2713,-568.9931 359.9442,-648.5838 284.36824,-82.7012 588.2558,89.4888 670.35662,372.5147 85.20398,293.7233 -92.70625,607.5188 -385.08521,692.1294 -303.07841,87.707 -626.78201,-95.9236 -713.90231,-397.6557 -90.2102,-312.4334 99.141,-646.0454 410.2263,-735.6752 321.78827,-92.7135 665.30886,102.3583 757.44794,422.7968 95.2171,331.1432 -105.57552,684.5727 -435.36732,779.2209 -340.49802,97.7208 -703.83652,-108.7928 -800.99362,-447.9379 -100.2247,-349.8527 112.0099,-723.1004 460.5083,-822.7665 359.20751,-102.7286 742.36462,115.2271 844.53936,473.0789 105.23278,368.5622 -118.44417,761.6288 -485.64943,866.3122 -377.91683,107.737 -780.89313,-121.6613 -888.08503,-498.22 -110.2413,-387.2714 124.8784,-800.1576 510.7905,-909.8578 396.62602,-112.7458 819.42215,128.0954 931.63068,523.361 115.25029,405.9806 -131.31236,838.6868 -535.93155,953.4035 -418.96503,118.7841 -856.92303,-130.8975 -975.17633,-548.5021 -121.3107,-428.4015 134.0325,-876.1658 561.0726,-996.9491"
         sodipodi:t0="0"
         sodipodi:argument="-17.54056"
         sodipodi:radius="817.76202"
         sodipodi:revolution="11.5"
         sodipodi:expansion="1"
         sodipodi:cy="5048.5259"
         sodipodi:cx="-1038.4368"
         id="path3212-4-3"
         style="fill:none;stroke:#000000;stroke-width:6.5;stroke-linecap:butt;stroke-linejoin:miter;stroke-miterlimit:4;stroke-opacity:1;stroke-dasharray:none"
         sodipodi:type="spiral" />
      <path
         transform="matrix(0,1,-1,0,4274.1135,6048.5123)"
         d="m -1038.4368,5048.5259 c 2.7684,10.3315 -12.5609,8.8288 -17.1716,4.6011 -12.495,-11.4568 -4.2002,-31.1448 7.9693,-38.9445 21.7684,-13.9519 49.82142,-0.8623 60.71737,20.5399 15.99025,31.4086 -2.43109,68.8032 -33.11047,82.4902 -40.8907,18.2426 -87.9001,-5.6969 -104.263,-45.681 -20.591,-50.3158 8.9468,-107.0535 58.2515,-126.0358 59.7147,-22.9901 126.2392,12.1869 147.80869,70.822 25.41891,69.0994 -15.4211,145.4449 -83.39249,169.5815 -78.4758,27.8667 -164.6641,-18.6512 -191.3544,-95.9631 -30.3272,-87.8466 21.8785,-183.8926 108.5336,-213.1271 97.21392,-32.7968 203.12804,25.1037 234.90002,121.1041 35.27291,106.5786 -28.32752,222.3686 -133.67466,256.6728 -115.94136,37.7541 -241.61316,-31.5501 -278.44566,-146.2451 -40.239,-125.3027 34.7718,-260.8608 158.8157,-300.2185 134.66292,-42.7271 280.11089,37.9927 321.99134,171.3862 45.21748,144.0223 -41.2132,299.3631 -183.95677,343.7642 -153.38087,47.7099 -318.61687,-44.4332 -365.53697,-196.5273 -50.204,-162.739 47.6526,-337.8722 209.0978,-387.3099 172.09654,-52.6993 357.12854,50.8719 409.08266,221.6684 55.19593,181.4537 -54.09085,376.3859 -234.23888,430.8555 -190.81058,57.6935 -395.64418,-57.3096 -452.62838,-246.8094 -60.1918,-200.1672 60.5281,-414.9033 259.38,-474.4012 209.52347,-62.6909 434.16287,63.7464 496.17398,271.9505 65.19068,218.8796 -66.96457,453.4231 -284.52099,517.9468 -228.23549,67.691 -472.68379,-70.1826 -539.71969,-297.0915 -70.1917,-237.5913 73.4006,-491.945 309.6621,-561.4925 246.94689,-72.693 511.20649,76.6184 583.2653,322.2326 75.19454,256.3024 -79.83609,530.4684 -334.8031,605.0381 -265.6578,77.6965 -549.7306,-83.0537 -626.811,-347.3736 -80.1987,-275.0131 86.2713,-568.9931 359.9442,-648.5838 284.36824,-82.7012 588.2558,89.4888 670.35662,372.5147 85.20398,293.7233 -92.70625,607.5188 -385.08521,692.1294 -303.07841,87.707 -626.78201,-95.9236 -713.90231,-397.6557 -90.2102,-312.4334 99.141,-646.0454 410.2263,-735.6752 321.78827,-92.7135 665.30886,102.3583 757.44794,422.7968 95.2171,331.1432 -105.57552,684.5727 -435.36732,779.2209 -340.49802,97.7208 -703.83652,-108.7928 -800.99362,-447.9379 -100.2247,-349.8527 112.0099,-723.1004 460.5083,-822.7665 359.20751,-102.7286 742.36462,115.2271 844.53936,473.0789 105.23278,368.5622 -118.44417,761.6288 -485.64943,866.3122 -377.91683,107.737 -780.89313,-121.6613 -888.08503,-498.22 -110.2413,-387.2714 124.8784,-800.1576 510.7905,-909.8578 396.62602,-112.7458 819.42215,128.0954 931.63068,523.361 115.25029,405.9806 -131.31236,838.6868 -535.93155,953.4035 -418.96503,118.7841 -856.92303,-130.8975 -975.17633,-548.5021 -121.3107,-428.4015 134.0325,-876.1658 561.0726,-996.9491"
         sodipodi:t0="0"
         sodipodi:argument="-17.54056"
         sodipodi:radius="817.76202"
         sodipodi:revolution="11.5"
         sodipodi:expansion="1"
         sodipodi:cy="5048.5259"
         sodipodi:cx="-1038.4368"
         id="path3212-4-3-8"
         style="fill:none;stroke:#000000;stroke-width:6.5;stroke-linecap:butt;stroke-linejoin:miter;stroke-miterlimit:4;stroke-opacity:1;stroke-dasharray:none"
         sodipodi:type="spiral" />
      <path
         transform="matrix(-0.5,0.8660254,-0.8660254,-0.5,3069.8006,8430.0489)"
         d="m -1038.4368,5048.5259 c 2.7684,10.3315 -12.5609,8.8288 -17.1716,4.6011 -12.495,-11.4568 -4.2002,-31.1448 7.9693,-38.9445 21.7684,-13.9519 49.82142,-0.8623 60.71737,20.5399 15.99025,31.4086 -2.43109,68.8032 -33.11047,82.4902 -40.8907,18.2426 -87.9001,-5.6969 -104.263,-45.681 -20.591,-50.3158 8.9468,-107.0535 58.2515,-126.0358 59.7147,-22.9901 126.2392,12.1869 147.80869,70.822 25.41891,69.0994 -15.4211,145.4449 -83.39249,169.5815 -78.4758,27.8667 -164.6641,-18.6512 -191.3544,-95.9631 -30.3272,-87.8466 21.8785,-183.8926 108.5336,-213.1271 97.21392,-32.7968 203.12804,25.1037 234.90002,121.1041 35.27291,106.5786 -28.32752,222.3686 -133.67466,256.6728 -115.94136,37.7541 -241.61316,-31.5501 -278.44566,-146.2451 -40.239,-125.3027 34.7718,-260.8608 158.8157,-300.2185 134.66292,-42.7271 280.11089,37.9927 321.99134,171.3862 45.21748,144.0223 -41.2132,299.3631 -183.95677,343.7642 -153.38087,47.7099 -318.61687,-44.4332 -365.53697,-196.5273 -50.204,-162.739 47.6526,-337.8722 209.0978,-387.3099 172.09654,-52.6993 357.12854,50.8719 409.08266,221.6684 55.19593,181.4537 -54.09085,376.3859 -234.23888,430.8555 -190.81058,57.6935 -395.64418,-57.3096 -452.62838,-246.8094 -60.1918,-200.1672 60.5281,-414.9033 259.38,-474.4012 209.52347,-62.6909 434.16287,63.7464 496.17398,271.9505 65.19068,218.8796 -66.96457,453.4231 -284.52099,517.9468 -228.23549,67.691 -472.68379,-70.1826 -539.71969,-297.0915 -70.1917,-237.5913 73.4006,-491.945 309.6621,-561.4925 246.94689,-72.693 511.20649,76.6184 583.2653,322.2326 75.19454,256.3024 -79.83609,530.4684 -334.8031,605.0381 -265.6578,77.6965 -549.7306,-83.0537 -626.811,-347.3736 -80.1987,-275.0131 86.2713,-568.9931 359.9442,-648.5838 284.36824,-82.7012 588.2558,89.4888 670.35662,372.5147 85.20398,293.7233 -92.70625,607.5188 -385.08521,692.1294 -303.07841,87.707 -626.78201,-95.9236 -713.90231,-397.6557 -90.2102,-312.4334 99.141,-646.0454 410.2263,-735.6752 321.78827,-92.7135 665.30886,102.3583 757.44794,422.7968 95.2171,331.1432 -105.57552,684.5727 -435.36732,779.2209 -340.49802,97.7208 -703.83652,-108.7928 -800.99362,-447.9379 -100.2247,-349.8527 112.0099,-723.1004 460.5083,-822.7665 359.20751,-102.7286 742.36462,115.2271 844.53936,473.0789 105.23278,368.5622 -118.44417,761.6288 -485.64943,866.3122 -377.91683,107.737 -780.89313,-121.6613 -888.08503,-498.22 -110.2413,-387.2714 124.8784,-800.1576 510.7905,-909.8578 396.62602,-112.7458 819.42215,128.0954 931.63068,523.361 115.25029,405.9806 -131.31236,838.6868 -535.93155,953.4035 -418.96503,118.7841 -856.92303,-130.8975 -975.17633,-548.5021 -121.3107,-428.4015 134.0325,-876.1658 561.0726,-996.9491"
         sodipodi:t0="0"
         sodipodi:argument="-17.54056"
         sodipodi:radius="817.76202"
         sodipodi:revolution="11.5"
         sodipodi:expansion="1"
         sodipodi:cy="5048.5259"
         sodipodi:cx="-1038.4368"
         id="path3212-4-3-8-6"
         style="fill:none;stroke:#000000;stroke-width:6.5;stroke-linecap:butt;stroke-linejoin:miter;stroke-miterlimit:4;stroke-opacity:1;stroke-dasharray:none"
         sodipodi:type="spiral" />
      <path
         transform="matrix(-0.8660254,0.5,-0.5,-0.8660254,835.22261,9886.4157)"
         d="m -1038.4368,5048.5259 c 2.7684,10.3315 -12.5609,8.8288 -17.1716,4.6011 -12.495,-11.4568 -4.2002,-31.1448 7.9693,-38.9445 21.7684,-13.9519 49.82142,-0.8623 60.71737,20.5399 15.99025,31.4086 -2.43109,68.8032 -33.11047,82.4902 -40.8907,18.2426 -87.9001,-5.6969 -104.263,-45.681 -20.591,-50.3158 8.9468,-107.0535 58.2515,-126.0358 59.7147,-22.9901 126.2392,12.1869 147.80869,70.822 25.41891,69.0994 -15.4211,145.4449 -83.39249,169.5815 -78.4758,27.8667 -164.6641,-18.6512 -191.3544,-95.9631 -30.3272,-87.8466 21.8785,-183.8926 108.5336,-213.1271 97.21392,-32.7968 203.12804,25.1037 234.90002,121.1041 35.27291,106.5786 -28.32752,222.3686 -133.67466,256.6728 -115.94136,37.7541 -241.61316,-31.5501 -278.44566,-146.2451 -40.239,-125.3027 34.7718,-260.8608 158.8157,-300.2185 134.66292,-42.7271 280.11089,37.9927 321.99134,171.3862 45.21748,144.0223 -41.2132,299.3631 -183.95677,343.7642 -153.38087,47.7099 -318.61687,-44.4332 -365.53697,-196.5273 -50.204,-162.739 47.6526,-337.8722 209.0978,-387.3099 172.09654,-52.6993 357.12854,50.8719 409.08266,221.6684 55.19593,181.4537 -54.09085,376.3859 -234.23888,430.8555 -190.81058,57.6935 -395.64418,-57.3096 -452.62838,-246.8094 -60.1918,-200.1672 60.5281,-414.9033 259.38,-474.4012 209.52347,-62.6909 434.16287,63.7464 496.17398,271.9505 65.19068,218.8796 -66.96457,453.4231 -284.52099,517.9468 -228.23549,67.691 -472.68379,-70.1826 -539.71969,-297.0915 -70.1917,-237.5913 73.4006,-491.945 309.6621,-561.4925 246.94689,-72.693 511.20649,76.6184 583.2653,322.2326 75.19454,256.3024 -79.83609,530.4684 -334.8031,605.0381 -265.6578,77.6965 -549.7306,-83.0537 -626.811,-347.3736 -80.1987,-275.0131 86.2713,-568.9931 359.9442,-648.5838 284.36824,-82.7012 588.2558,89.4888 670.35662,372.5147 85.20398,293.7233 -92.70625,607.5188 -385.08521,692.1294 -303.07841,87.707 -626.78201,-95.9236 -713.90231,-397.6557 -90.2102,-312.4334 99.141,-646.0454 410.2263,-735.6752 321.78827,-92.7135 665.30886,102.3583 757.44794,422.7968 95.2171,331.1432 -105.57552,684.5727 -435.36732,779.2209 -340.49802,97.7208 -703.83652,-108.7928 -800.99362,-447.9379 -100.2247,-349.8527 112.0099,-723.1004 460.5083,-822.7665 359.20751,-102.7286 742.36462,115.2271 844.53936,473.0789 105.23278,368.5622 -118.44417,761.6288 -485.64943,866.3122 -377.91683,107.737 -780.89313,-121.6613 -888.08503,-498.22 -110.2413,-387.2714 124.8784,-800.1576 510.7905,-909.8578 396.62602,-112.7458 819.42215,128.0954 931.63068,523.361 115.25029,405.9806 -131.31236,838.6868 -535.93155,953.4035 -418.96503,118.7841 -856.92303,-130.8975 -975.17633,-548.5021 -121.3107,-428.4015 134.0325,-876.1658 561.0726,-996.9491"
         sodipodi:t0="0"
         sodipodi:argument="-17.54056"
         sodipodi:radius="817.76202"
         sodipodi:revolution="11.5"
         sodipodi:expansion="1"
         sodipodi:cy="5048.5259"
         sodipodi:cx="-1038.4368"
         id="path3212-4-3-8-6-1"
         style="fill:none;stroke:#000000;stroke-width:6.5;stroke-linecap:butt;stroke-linejoin:miter;stroke-miterlimit:4;stroke-opacity:1;stroke-dasharray:none"
         sodipodi:type="spiral" />
      <path
         transform="matrix(-1,0,0,-1,-1835.0078,10031.702)"
         d="m -1038.4368,5048.5259 c 2.7684,10.3315 -12.5609,8.8288 -17.1716,4.6011 -12.495,-11.4568 -4.2002,-31.1448 7.9693,-38.9445 21.7684,-13.9519 49.82142,-0.8623 60.71737,20.5399 15.99025,31.4086 -2.43109,68.8032 -33.11047,82.4902 -40.8907,18.2426 -87.9001,-5.6969 -104.263,-45.681 -20.591,-50.3158 8.9468,-107.0535 58.2515,-126.0358 59.7147,-22.9901 126.2392,12.1869 147.80869,70.822 25.41891,69.0994 -15.4211,145.4449 -83.39249,169.5815 -78.4758,27.8667 -164.6641,-18.6512 -191.3544,-95.9631 -30.3272,-87.8466 21.8785,-183.8926 108.5336,-213.1271 97.21392,-32.7968 203.12804,25.1037 234.90002,121.1041 35.27291,106.5786 -28.32752,222.3686 -133.67466,256.6728 -115.94136,37.7541 -241.61316,-31.5501 -278.44566,-146.2451 -40.239,-125.3027 34.7718,-260.8608 158.8157,-300.2185 134.66292,-42.7271 280.11089,37.9927 321.99134,171.3862 45.21748,144.0223 -41.2132,299.3631 -183.95677,343.7642 -153.38087,47.7099 -318.61687,-44.4332 -365.53697,-196.5273 -50.204,-162.739 47.6526,-337.8722 209.0978,-387.3099 172.09654,-52.6993 357.12854,50.8719 409.08266,221.6684 55.19593,181.4537 -54.09085,376.3859 -234.23888,430.8555 -190.81058,57.6935 -395.64418,-57.3096 -452.62838,-246.8094 -60.1918,-200.1672 60.5281,-414.9033 259.38,-474.4012 209.52347,-62.6909 434.16287,63.7464 496.17398,271.9505 65.19068,218.8796 -66.96457,453.4231 -284.52099,517.9468 -228.23549,67.691 -472.68379,-70.1826 -539.71969,-297.0915 -70.1917,-237.5913 73.4006,-491.945 309.6621,-561.4925 246.94689,-72.693 511.20649,76.6184 583.2653,322.2326 75.19454,256.3024 -79.83609,530.4684 -334.8031,605.0381 -265.6578,77.6965 -549.7306,-83.0537 -626.811,-347.3736 -80.1987,-275.0131 86.2713,-568.9931 359.9442,-648.5838 284.36824,-82.7012 588.2558,89.4888 670.35662,372.5147 85.20398,293.7233 -92.70625,607.5188 -385.08521,692.1294 -303.07841,87.707 -626.78201,-95.9236 -713.90231,-397.6557 -90.2102,-312.4334 99.141,-646.0454 410.2263,-735.6752 321.78827,-92.7135 665.30886,102.3583 757.44794,422.7968 95.2171,331.1432 -105.57552,684.5727 -435.36732,779.2209 -340.49802,97.7208 -703.83652,-108.7928 -800.99362,-447.9379 -100.2247,-349.8527 112.0099,-723.1004 460.5083,-822.7665 359.20751,-102.7286 742.36462,115.2271 844.53936,473.0789 105.23278,368.5622 -118.44417,761.6288 -485.64943,866.3122 -377.91683,107.737 -780.89313,-121.6613 -888.08503,-498.22 -110.2413,-387.2714 124.8784,-800.1576 510.7905,-909.8578 396.62602,-112.7458 819.42215,128.0954 931.63068,523.361 115.25029,405.9806 -131.31236,838.6868 -535.93155,953.4035 -418.96503,118.7841 -856.92303,-130.8975 -975.17633,-548.5021 -121.3107,-428.4015 134.0325,-876.1658 561.0726,-996.9491"
         sodipodi:t0="0"
         sodipodi:argument="-17.54056"
         sodipodi:radius="817.76202"
         sodipodi:revolution="11.5"
         sodipodi:expansion="1"
         sodipodi:cy="5048.5259"
         sodipodi:cx="-1038.4368"
         id="path3212-4-3-8-6-1-3"
         style="fill:none;stroke:#000000;stroke-width:6.5;stroke-linecap:butt;stroke-linejoin:miter;stroke-miterlimit:4;stroke-opacity:1;stroke-dasharray:none"
         sodipodi:type="spiral" />
      <path
         transform="matrix(-0.8660254,-0.5,0.5,-0.8660254,-4216.5444,8827.3891)"
         d="m -1038.4368,5048.5259 c 2.7684,10.3315 -12.5609,8.8288 -17.1716,4.6011 -12.495,-11.4568 -4.2002,-31.1448 7.9693,-38.9445 21.7684,-13.9519 49.82142,-0.8623 60.71737,20.5399 15.99025,31.4086 -2.43109,68.8032 -33.11047,82.4902 -40.8907,18.2426 -87.9001,-5.6969 -104.263,-45.681 -20.591,-50.3158 8.9468,-107.0535 58.2515,-126.0358 59.7147,-22.9901 126.2392,12.1869 147.80869,70.822 25.41891,69.0994 -15.4211,145.4449 -83.39249,169.5815 -78.4758,27.8667 -164.6641,-18.6512 -191.3544,-95.9631 -30.3272,-87.8466 21.8785,-183.8926 108.5336,-213.1271 97.21392,-32.7968 203.12804,25.1037 234.90002,121.1041 35.27291,106.5786 -28.32752,222.3686 -133.67466,256.6728 -115.94136,37.7541 -241.61316,-31.5501 -278.44566,-146.2451 -40.239,-125.3027 34.7718,-260.8608 158.8157,-300.2185 134.66292,-42.7271 280.11089,37.9927 321.99134,171.3862 45.21748,144.0223 -41.2132,299.3631 -183.95677,343.7642 -153.38087,47.7099 -318.61687,-44.4332 -365.53697,-196.5273 -50.204,-162.739 47.6526,-337.8722 209.0978,-387.3099 172.09654,-52.6993 357.12854,50.8719 409.08266,221.6684 55.19593,181.4537 -54.09085,376.3859 -234.23888,430.8555 -190.81058,57.6935 -395.64418,-57.3096 -452.62838,-246.8094 -60.1918,-200.1672 60.5281,-414.9033 259.38,-474.4012 209.52347,-62.6909 434.16287,63.7464 496.17398,271.9505 65.19068,218.8796 -66.96457,453.4231 -284.52099,517.9468 -228.23549,67.691 -472.68379,-70.1826 -539.71969,-297.0915 -70.1917,-237.5913 73.4006,-491.945 309.6621,-561.4925 246.94689,-72.693 511.20649,76.6184 583.2653,322.2326 75.19454,256.3024 -79.83609,530.4684 -334.8031,605.0381 -265.6578,77.6965 -549.7306,-83.0537 -626.811,-347.3736 -80.1987,-275.0131 86.2713,-568.9931 359.9442,-648.5838 284.36824,-82.7012 588.2558,89.4888 670.35662,372.5147 85.20398,293.7233 -92.70625,607.5188 -385.08521,692.1294 -303.07841,87.707 -626.78201,-95.9236 -713.90231,-397.6557 -90.2102,-312.4334 99.141,-646.0454 410.2263,-735.6752 321.78827,-92.7135 665.30886,102.3583 757.44794,422.7968 95.2171,331.1432 -105.57552,684.5727 -435.36732,779.2209 -340.49802,97.7208 -703.83652,-108.7928 -800.99362,-447.9379 -100.2247,-349.8527 112.0099,-723.1004 460.5083,-822.7665 359.20751,-102.7286 742.36462,115.2271 844.53936,473.0789 105.23278,368.5622 -118.44417,761.6288 -485.64943,866.3122 -377.91683,107.737 -780.89313,-121.6613 -888.08503,-498.22 -110.2413,-387.2714 124.8784,-800.1576 510.7905,-909.8578 396.62602,-112.7458 819.42215,128.0954 931.63068,523.361 115.25029,405.9806 -131.31236,838.6868 -535.93155,953.4035 -418.96503,118.7841 -856.92303,-130.8975 -975.17633,-548.5021 -121.3107,-428.4015 134.0325,-876.1658 561.0726,-996.9491"
         sodipodi:t0="0"
         sodipodi:argument="-17.54056"
         sodipodi:radius="817.76202"
         sodipodi:revolution="11.5"
         sodipodi:expansion="1"
         sodipodi:cy="5048.5259"
         sodipodi:cx="-1038.4368"
         id="path3212-4-3-8-6-1-3-0"
         style="fill:none;stroke:#000000;stroke-width:6.5;stroke-linecap:butt;stroke-linejoin:miter;stroke-miterlimit:4;stroke-opacity:1;stroke-dasharray:none"
         sodipodi:type="spiral" />
      <path
         transform="matrix(-0.5,-0.8660254,0.8660254,-0.5,-5672.9112,6592.8111)"
         d="m -1038.4368,5048.5259 c 2.7684,10.3315 -12.5609,8.8288 -17.1716,4.6011 -12.495,-11.4568 -4.2002,-31.1448 7.9693,-38.9445 21.7684,-13.9519 49.82142,-0.8623 60.71737,20.5399 15.99025,31.4086 -2.43109,68.8032 -33.11047,82.4902 -40.8907,18.2426 -87.9001,-5.6969 -104.263,-45.681 -20.591,-50.3158 8.9468,-107.0535 58.2515,-126.0358 59.7147,-22.9901 126.2392,12.1869 147.80869,70.822 25.41891,69.0994 -15.4211,145.4449 -83.39249,169.5815 -78.4758,27.8667 -164.6641,-18.6512 -191.3544,-95.9631 -30.3272,-87.8466 21.8785,-183.8926 108.5336,-213.1271 97.21392,-32.7968 203.12804,25.1037 234.90002,121.1041 35.27291,106.5786 -28.32752,222.3686 -133.67466,256.6728 -115.94136,37.7541 -241.61316,-31.5501 -278.44566,-146.2451 -40.239,-125.3027 34.7718,-260.8608 158.8157,-300.2185 134.66292,-42.7271 280.11089,37.9927 321.99134,171.3862 45.21748,144.0223 -41.2132,299.3631 -183.95677,343.7642 -153.38087,47.7099 -318.61687,-44.4332 -365.53697,-196.5273 -50.204,-162.739 47.6526,-337.8722 209.0978,-387.3099 172.09654,-52.6993 357.12854,50.8719 409.08266,221.6684 55.19593,181.4537 -54.09085,376.3859 -234.23888,430.8555 -190.81058,57.6935 -395.64418,-57.3096 -452.62838,-246.8094 -60.1918,-200.1672 60.5281,-414.9033 259.38,-474.4012 209.52347,-62.6909 434.16287,63.7464 496.17398,271.9505 65.19068,218.8796 -66.96457,453.4231 -284.52099,517.9468 -228.23549,67.691 -472.68379,-70.1826 -539.71969,-297.0915 -70.1917,-237.5913 73.4006,-491.945 309.6621,-561.4925 246.94689,-72.693 511.20649,76.6184 583.2653,322.2326 75.19454,256.3024 -79.83609,530.4684 -334.8031,605.0381 -265.6578,77.6965 -549.7306,-83.0537 -626.811,-347.3736 -80.1987,-275.0131 86.2713,-568.9931 359.9442,-648.5838 284.36824,-82.7012 588.2558,89.4888 670.35662,372.5147 85.20398,293.7233 -92.70625,607.5188 -385.08521,692.1294 -303.07841,87.707 -626.78201,-95.9236 -713.90231,-397.6557 -90.2102,-312.4334 99.141,-646.0454 410.2263,-735.6752 321.78827,-92.7135 665.30886,102.3583 757.44794,422.7968 95.2171,331.1432 -105.57552,684.5727 -435.36732,779.2209 -340.49802,97.7208 -703.83652,-108.7928 -800.99362,-447.9379 -100.2247,-349.8527 112.0099,-723.1004 460.5083,-822.7665 359.20751,-102.7286 742.36462,115.2271 844.53936,473.0789 105.23278,368.5622 -118.44417,761.6288 -485.64943,866.3122 -377.91683,107.737 -780.89313,-121.6613 -888.08503,-498.22 -110.2413,-387.2714 124.8784,-800.1576 510.7905,-909.8578 396.62602,-112.7458 819.42215,128.0954 931.63068,523.361 115.25029,405.9806 -131.31236,838.6868 -535.93155,953.4035 -418.96503,118.7841 -856.92303,-130.8975 -975.17633,-548.5021 -121.3107,-428.4015 134.0325,-876.1658 561.0726,-996.9491"
         sodipodi:t0="0"
         sodipodi:argument="-17.54056"
         sodipodi:radius="817.76202"
         sodipodi:revolution="11.5"
         sodipodi:expansion="1"
         sodipodi:cy="5048.5259"
         sodipodi:cx="-1038.4368"
         id="path3212-4-3-8-6-1-3-0-1"
         style="fill:none;stroke:#000000;stroke-width:6.5;stroke-linecap:butt;stroke-linejoin:miter;stroke-miterlimit:4;stroke-opacity:1;stroke-dasharray:none"
         sodipodi:type="spiral" />
      <path
         transform="matrix(0,-1,1,0,-5818.1974,3922.5806)"
         d="m -1038.4368,5048.5259 c 2.7684,10.3315 -12.5609,8.8288 -17.1716,4.6011 -12.495,-11.4568 -4.2002,-31.1448 7.9693,-38.9445 21.7684,-13.9519 49.82142,-0.8623 60.71737,20.5399 15.99025,31.4086 -2.43109,68.8032 -33.11047,82.4902 -40.8907,18.2426 -87.9001,-5.6969 -104.263,-45.681 -20.591,-50.3158 8.9468,-107.0535 58.2515,-126.0358 59.7147,-22.9901 126.2392,12.1869 147.80869,70.822 25.41891,69.0994 -15.4211,145.4449 -83.39249,169.5815 -78.4758,27.8667 -164.6641,-18.6512 -191.3544,-95.9631 -30.3272,-87.8466 21.8785,-183.8926 108.5336,-213.1271 97.21392,-32.7968 203.12804,25.1037 234.90002,121.1041 35.27291,106.5786 -28.32752,222.3686 -133.67466,256.6728 -115.94136,37.7541 -241.61316,-31.5501 -278.44566,-146.2451 -40.239,-125.3027 34.7718,-260.8608 158.8157,-300.2185 134.66292,-42.7271 280.11089,37.9927 321.99134,171.3862 45.21748,144.0223 -41.2132,299.3631 -183.95677,343.7642 -153.38087,47.7099 -318.61687,-44.4332 -365.53697,-196.5273 -50.204,-162.739 47.6526,-337.8722 209.0978,-387.3099 172.09654,-52.6993 357.12854,50.8719 409.08266,221.6684 55.19593,181.4537 -54.09085,376.3859 -234.23888,430.8555 -190.81058,57.6935 -395.64418,-57.3096 -452.62838,-246.8094 -60.1918,-200.1672 60.5281,-414.9033 259.38,-474.4012 209.52347,-62.6909 434.16287,63.7464 496.17398,271.9505 65.19068,218.8796 -66.96457,453.4231 -284.52099,517.9468 -228.23549,67.691 -472.68379,-70.1826 -539.71969,-297.0915 -70.1917,-237.5913 73.4006,-491.945 309.6621,-561.4925 246.94689,-72.693 511.20649,76.6184 583.2653,322.2326 75.19454,256.3024 -79.83609,530.4684 -334.8031,605.0381 -265.6578,77.6965 -549.7306,-83.0537 -626.811,-347.3736 -80.1987,-275.0131 86.2713,-568.9931 359.9442,-648.5838 284.36824,-82.7012 588.2558,89.4888 670.35662,372.5147 85.20398,293.7233 -92.70625,607.5188 -385.08521,692.1294 -303.07841,87.707 -626.78201,-95.9236 -713.90231,-397.6557 -90.2102,-312.4334 99.141,-646.0454 410.2263,-735.6752 321.78827,-92.7135 665.30886,102.3583 757.44794,422.7968 95.2171,331.1432 -105.57552,684.5727 -435.36732,779.2209 -340.49802,97.7208 -703.83652,-108.7928 -800.99362,-447.9379 -100.2247,-349.8527 112.0099,-723.1004 460.5083,-822.7665 359.20751,-102.7286 742.36462,115.2271 844.53936,473.0789 105.23278,368.5622 -118.44417,761.6288 -485.64943,866.3122 -377.91683,107.737 -780.89313,-121.6613 -888.08503,-498.22 -110.2413,-387.2714 124.8784,-800.1576 510.7905,-909.8578 396.62602,-112.7458 819.42215,128.0954 931.63068,523.361 115.25029,405.9806 -131.31236,838.6868 -535.93155,953.4035 -418.96503,118.7841 -856.92303,-130.8975 -975.17633,-548.5021 -121.3107,-428.4015 134.0325,-876.1658 561.0726,-996.9491"
         sodipodi:t0="0"
         sodipodi:argument="-17.54056"
         sodipodi:radius="817.76202"
         sodipodi:revolution="11.5"
         sodipodi:expansion="1"
         sodipodi:cy="5048.5259"
         sodipodi:cx="-1038.4368"
         id="path3212-4-3-8-6-1-3-0-1-2"
         style="fill:none;stroke:#000000;stroke-width:6.5;stroke-linecap:butt;stroke-linejoin:miter;stroke-miterlimit:4;stroke-opacity:1;stroke-dasharray:none"
         sodipodi:type="spiral" />
      <path
         transform="matrix(0.5,-0.8660254,0.8660254,0.5,-4613.8845,1541.044)"
         d="m -1038.4368,5048.5259 c 2.7684,10.3315 -12.5609,8.8288 -17.1716,4.6011 -12.495,-11.4568 -4.2002,-31.1448 7.9693,-38.9445 21.7684,-13.9519 49.82142,-0.8623 60.71737,20.5399 15.99025,31.4086 -2.43109,68.8032 -33.11047,82.4902 -40.8907,18.2426 -87.9001,-5.6969 -104.263,-45.681 -20.591,-50.3158 8.9468,-107.0535 58.2515,-126.0358 59.7147,-22.9901 126.2392,12.1869 147.80869,70.822 25.41891,69.0994 -15.4211,145.4449 -83.39249,169.5815 -78.4758,27.8667 -164.6641,-18.6512 -191.3544,-95.9631 -30.3272,-87.8466 21.8785,-183.8926 108.5336,-213.1271 97.21392,-32.7968 203.12804,25.1037 234.90002,121.1041 35.27291,106.5786 -28.32752,222.3686 -133.67466,256.6728 -115.94136,37.7541 -241.61316,-31.5501 -278.44566,-146.2451 -40.239,-125.3027 34.7718,-260.8608 158.8157,-300.2185 134.66292,-42.7271 280.11089,37.9927 321.99134,171.3862 45.21748,144.0223 -41.2132,299.3631 -183.95677,343.7642 -153.38087,47.7099 -318.61687,-44.4332 -365.53697,-196.5273 -50.204,-162.739 47.6526,-337.8722 209.0978,-387.3099 172.09654,-52.6993 357.12854,50.8719 409.08266,221.6684 55.19593,181.4537 -54.09085,376.3859 -234.23888,430.8555 -190.81058,57.6935 -395.64418,-57.3096 -452.62838,-246.8094 -60.1918,-200.1672 60.5281,-414.9033 259.38,-474.4012 209.52347,-62.6909 434.16287,63.7464 496.17398,271.9505 65.19068,218.8796 -66.96457,453.4231 -284.52099,517.9468 -228.23549,67.691 -472.68379,-70.1826 -539.71969,-297.0915 -70.1917,-237.5913 73.4006,-491.945 309.6621,-561.4925 246.94689,-72.693 511.20649,76.6184 583.2653,322.2326 75.19454,256.3024 -79.83609,530.4684 -334.8031,605.0381 -265.6578,77.6965 -549.7306,-83.0537 -626.811,-347.3736 -80.1987,-275.0131 86.2713,-568.9931 359.9442,-648.5838 284.36824,-82.7012 588.2558,89.4888 670.35662,372.5147 85.20398,293.7233 -92.70625,607.5188 -385.08521,692.1294 -303.07841,87.707 -626.78201,-95.9236 -713.90231,-397.6557 -90.2102,-312.4334 99.141,-646.0454 410.2263,-735.6752 321.78827,-92.7135 665.30886,102.3583 757.44794,422.7968 95.2171,331.1432 -105.57552,684.5727 -435.36732,779.2209 -340.49802,97.7208 -703.83652,-108.7928 -800.99362,-447.9379 -100.2247,-349.8527 112.0099,-723.1004 460.5083,-822.7665 359.20751,-102.7286 742.36462,115.2271 844.53936,473.0789 105.23278,368.5622 -118.44417,761.6288 -485.64943,866.3122 -377.91683,107.737 -780.89313,-121.6613 -888.08503,-498.22 -110.2413,-387.2714 124.8784,-800.1576 510.7905,-909.8578 396.62602,-112.7458 819.42215,128.0954 931.63068,523.361 115.25029,405.9806 -131.31236,838.6868 -535.93155,953.4035 -418.96503,118.7841 -856.92303,-130.8975 -975.17633,-548.5021 -121.3107,-428.4015 134.0325,-876.1658 561.0726,-996.9491"
         sodipodi:t0="0"
         sodipodi:argument="-17.54056"
         sodipodi:radius="817.76202"
         sodipodi:revolution="11.5"
         sodipodi:expansion="1"
         sodipodi:cy="5048.5259"
         sodipodi:cx="-1038.4368"
         id="path3212-4-3-8-6-1-3-0-1-2-6"
         style="fill:none;stroke:#000000;stroke-width:6.5;stroke-linecap:butt;stroke-linejoin:miter;stroke-miterlimit:4;stroke-opacity:1;stroke-dasharray:none"
         sodipodi:type="spiral" />
      <path
         transform="matrix(0.8660254,-0.5,0.5,0.8660254,-2379.3065,84.67719)"
         d="m -1038.4368,5048.5259 c 2.7684,10.3315 -12.5609,8.8288 -17.1716,4.6011 -12.495,-11.4568 -4.2002,-31.1448 7.9693,-38.9445 21.7684,-13.9519 49.82142,-0.8623 60.71737,20.5399 15.99025,31.4086 -2.43109,68.8032 -33.11047,82.4902 -40.8907,18.2426 -87.9001,-5.6969 -104.263,-45.681 -20.591,-50.3158 8.9468,-107.0535 58.2515,-126.0358 59.7147,-22.9901 126.2392,12.1869 147.80869,70.822 25.41891,69.0994 -15.4211,145.4449 -83.39249,169.5815 -78.4758,27.8667 -164.6641,-18.6512 -191.3544,-95.9631 -30.3272,-87.8466 21.8785,-183.8926 108.5336,-213.1271 97.21392,-32.7968 203.12804,25.1037 234.90002,121.1041 35.27291,106.5786 -28.32752,222.3686 -133.67466,256.6728 -115.94136,37.7541 -241.61316,-31.5501 -278.44566,-146.2451 -40.239,-125.3027 34.7718,-260.8608 158.8157,-300.2185 134.66292,-42.7271 280.11089,37.9927 321.99134,171.3862 45.21748,144.0223 -41.2132,299.3631 -183.95677,343.7642 -153.38087,47.7099 -318.61687,-44.4332 -365.53697,-196.5273 -50.204,-162.739 47.6526,-337.8722 209.0978,-387.3099 172.09654,-52.6993 357.12854,50.8719 409.08266,221.6684 55.19593,181.4537 -54.09085,376.3859 -234.23888,430.8555 -190.81058,57.6935 -395.64418,-57.3096 -452.62838,-246.8094 -60.1918,-200.1672 60.5281,-414.9033 259.38,-474.4012 209.52347,-62.6909 434.16287,63.7464 496.17398,271.9505 65.19068,218.8796 -66.96457,453.4231 -284.52099,517.9468 -228.23549,67.691 -472.68379,-70.1826 -539.71969,-297.0915 -70.1917,-237.5913 73.4006,-491.945 309.6621,-561.4925 246.94689,-72.693 511.20649,76.6184 583.2653,322.2326 75.19454,256.3024 -79.83609,530.4684 -334.8031,605.0381 -265.6578,77.6965 -549.7306,-83.0537 -626.811,-347.3736 -80.1987,-275.0131 86.2713,-568.9931 359.9442,-648.5838 284.36824,-82.7012 588.2558,89.4888 670.35662,372.5147 85.20398,293.7233 -92.70625,607.5188 -385.08521,692.1294 -303.07841,87.707 -626.78201,-95.9236 -713.90231,-397.6557 -90.2102,-312.4334 99.141,-646.0454 410.2263,-735.6752 321.78827,-92.7135 665.30886,102.3583 757.44794,422.7968 95.2171,331.1432 -105.57552,684.5727 -435.36732,779.2209 -340.49802,97.7208 -703.83652,-108.7928 -800.99362,-447.9379 -100.2247,-349.8527 112.0099,-723.1004 460.5083,-822.7665 359.20751,-102.7286 742.36462,115.2271 844.53936,473.0789 105.23278,368.5622 -118.44417,761.6288 -485.64943,866.3122 -377.91683,107.737 -780.89313,-121.6613 -888.08503,-498.22 -110.2413,-387.2714 124.8784,-800.1576 510.7905,-909.8578 396.62602,-112.7458 819.42215,128.0954 931.63068,523.361 115.25029,405.9806 -131.31236,838.6868 -535.93155,953.4035 -418.96503,118.7841 -856.92303,-130.8975 -975.17633,-548.5021 -121.3107,-428.4015 134.0325,-876.1658 561.0726,-996.9491"
         sodipodi:t0="0"
         sodipodi:argument="-17.54056"
         sodipodi:radius="817.76202"
         sodipodi:revolution="11.5"
         sodipodi:expansion="1"
         sodipodi:cy="5048.5259"
         sodipodi:cx="-1038.4368"
         id="path3212-4-3-8-6-1-3-0-1-2-6-0"
         style="fill:none;stroke:#000000;stroke-width:6.5;stroke-linecap:butt;stroke-linejoin:miter;stroke-miterlimit:4;stroke-opacity:1;stroke-dasharray:none"
         sodipodi:type="spiral" />
    </g>
  </g>
</svg>
