<?xml version="1.0" encoding="UTF-8" standalone="no"?>
<!-- Created with Inkscape (http://www.inkscape.org/) -->

<svg
   xmlns:dc="http://purl.org/dc/elements/1.1/"
   xmlns:cc="http://creativecommons.org/ns#"
   xmlns:rdf="http://www.w3.org/1999/02/22-rdf-syntax-ns#"
   xmlns:svg="http://www.w3.org/2000/svg"
   xmlns="http://www.w3.org/2000/svg"
   xmlns:sodipodi="http://sodipodi.sourceforge.net/DTD/sodipodi-0.dtd"
   xmlns:inkscape="http://www.inkscape.org/namespaces/inkscape"
   width="3072.0476"
   height="3072.0479"
   id="svg4266"
   version="1.1"
   inkscape:version="0.48.4 r9939"
   sodipodi:docname="b1.svg">
  <defs
     id="defs4268" />
  <sodipodi:namedview
     id="base"
     pagecolor="#ffffff"
     bordercolor="#666666"
     borderopacity="1.0"
     inkscape:pageopacity="0.0"
     inkscape:pageshadow="2"
     inkscape:zoom="0.35"
     inkscape:cx="1721.156"
     inkscape:cy="1318.2989"
     inkscape:document-units="px"
     inkscape:current-layer="layer1"
     showgrid="false"
     fit-margin-top="0"
     fit-margin-left="0"
     fit-margin-right="0"
     fit-margin-bottom="0"
     inkscape:window-width="472"
     inkscape:window-height="383"
     inkscape:window-x="992"
     inkscape:window-y="669"
     inkscape:window-maximized="0" />
  <metadata
     id="metadata4271">
    <rdf:RDF>
      <cc:Work
         rdf:about="">
        <dc:format>image/svg+xml</dc:format>
        <dc:type
           rdf:resource="http://purl.org/dc/dcmitype/StillImage" />
        <dc:title></dc:title>
      </cc:Work>
    </rdf:RDF>
  </metadata>
  <g
     inkscape:label="Layer 1"
     inkscape:groupmode="layer"
     id="layer1"
     transform="translate(1346.156,1221.3866)">
    <g
       id="g4695"
       transform="translate(366.9252,-6802.9973)">
      <path
         transform="translate(497.14286,142.85714)"
         d="m -668.57141,6978.0767 c -0.21083,-0.1191 0.29055,-0.5637 0.33369,-0.591 1.91148,-1.2109 3.81657,1.6668 4.17028,3.134 1.74757,7.2492 -6.86527,11.9795 -12.84664,12.2325 -17.60551,0.7445 -27.16413,-18.9722 -25.98256,-34.1565 2.68275,-34.476 40.94364,-51.4712 71.59202,-46.6215 59.37378,9.3952 86.97581,75.6728 75.33904,129.5828 -20.24761,93.8018 -126.00543,135.7269 -212.48553,113.3144 -139.24722,-36.0878 -199.75001,-194.7498 -161.71647,-324.5992 57.75581,-197.1828 284.68245,-281.0505 470.17513,-221.7052 269.06782,86.0838 381.616258,398.5531 294.43232,653.4238 -121.89709,356.35 -539.08808,503.4195 -878.52047,381.042 -464.1309,-167.3358 -649.8068,-705.3025 -482.6716,-1149.6088 221.0186,-587.548 906.2251,-820.4021 1470.80476,-600.4524 732.70093,285.4467 1019.0127,1139.578 735.50947,1846.1986 -12.23125,30.4859 -25.43017,60.5833 -39.56254,90.2358"
         sodipodi:t0="0"
         sodipodi:argument="-21.477144"
         sodipodi:radius="1561.1821"
         sodipodi:revolution="3.51"
         sodipodi:expansion="2.9300001"
         sodipodi:cy="6978.0767"
         sodipodi:cx="-668.57141"
         id="path4549"
         style="fill:none;stroke:#000000;stroke-width:5;stroke-linecap:butt;stroke-linejoin:miter;stroke-miterlimit:4;stroke-opacity:1;stroke-dasharray:none"
         sodipodi:type="spiral" />
      <path
         inkscape:transform-center-y="249.60644"
         inkscape:transform-center-x="-250.8682"
         transform="matrix(0.70710678,0.70710678,-0.70710678,0.70710678,5231.5865,2662.4533)"
         d="m -668.57141,6978.0767 c -0.21083,-0.1191 0.29055,-0.5637 0.33369,-0.591 1.91148,-1.2109 3.81657,1.6668 4.17028,3.134 1.74757,7.2492 -6.86527,11.9795 -12.84664,12.2325 -17.60551,0.7445 -27.16413,-18.9722 -25.98256,-34.1565 2.68275,-34.476 40.94364,-51.4712 71.59202,-46.6215 59.37378,9.3952 86.97581,75.6728 75.33904,129.5828 -20.24761,93.8018 -126.00543,135.7269 -212.48553,113.3144 -139.24722,-36.0878 -199.75001,-194.7498 -161.71647,-324.5992 57.75581,-197.1828 284.68245,-281.0505 470.17513,-221.7052 269.06782,86.0838 381.616258,398.5531 294.43232,653.4238 -121.89709,356.35 -539.08808,503.4195 -878.52047,381.042 -464.1309,-167.3358 -649.8068,-705.3025 -482.6716,-1149.6088 221.0186,-587.548 906.2251,-820.4021 1470.80476,-600.4524 732.70093,285.4467 1019.0127,1139.578 735.50947,1846.1986 -12.23125,30.4859 -25.43017,60.5833 -39.56254,90.2358"
         sodipodi:t0="0"
         sodipodi:argument="-21.477144"
         sodipodi:radius="1561.1821"
         sodipodi:revolution="3.51"
         sodipodi:expansion="2.9300001"
         sodipodi:cy="6978.0767"
         sodipodi:cx="-668.57141"
         id="path4549-6"
         style="fill:none;stroke:#000000;stroke-width:5;stroke-linecap:butt;stroke-linejoin:miter;stroke-miterlimit:4;stroke-opacity:1;stroke-dasharray:none"
         sodipodi:type="spiral" />
      <path
         inkscape:transform-center-y="274.28568"
         inkscape:transform-center-x="-154.2857"
         transform="matrix(0,1,-1,0,6797.7202,7791.834)"
         d="m -668.57141,6978.0767 c -0.21083,-0.1191 0.29055,-0.5637 0.33369,-0.591 1.91148,-1.2109 3.81657,1.6668 4.17028,3.134 1.74757,7.2492 -6.86527,11.9795 -12.84664,12.2325 -17.60551,0.7445 -27.16413,-18.9722 -25.98256,-34.1565 2.68275,-34.476 40.94364,-51.4712 71.59202,-46.6215 59.37378,9.3952 86.97581,75.6728 75.33904,129.5828 -20.24761,93.8018 -126.00543,135.7269 -212.48553,113.3144 -139.24722,-36.0878 -199.75001,-194.7498 -161.71647,-324.5992 57.75581,-197.1828 284.68245,-281.0505 470.17513,-221.7052 269.06782,86.0838 381.616258,398.5531 294.43232,653.4238 -121.89709,356.35 -539.08808,503.4195 -878.52047,381.042 -464.1309,-167.3358 -649.8068,-705.3025 -482.6716,-1149.6088 221.0186,-587.548 906.2251,-820.4021 1470.80476,-600.4524 732.70093,285.4467 1019.0127,1139.578 735.50947,1846.1986 -12.23125,30.4859 -25.43017,60.5833 -39.56254,90.2358"
         sodipodi:t0="0"
         sodipodi:argument="-21.477144"
         sodipodi:radius="1561.1821"
         sodipodi:revolution="3.51"
         sodipodi:expansion="2.9300001"
         sodipodi:cy="6978.0767"
         sodipodi:cx="-668.57141"
         id="path4549-6-0"
         style="fill:none;stroke:#000000;stroke-width:5;stroke-linecap:butt;stroke-linejoin:miter;stroke-miterlimit:4;stroke-opacity:1;stroke-dasharray:none"
         sodipodi:type="spiral" />
      <path
         inkscape:transform-center-y="250.86855"
         inkscape:transform-center-x="249.60635"
         transform="matrix(-0.70710678,0.70710678,-0.70710678,-0.70710678,4278.1241,12526.278)"
         d="m -668.57141,6978.0767 c -0.21083,-0.1191 0.29055,-0.5637 0.33369,-0.591 1.91148,-1.2109 3.81657,1.6668 4.17028,3.134 1.74757,7.2492 -6.86527,11.9795 -12.84664,12.2325 -17.60551,0.7445 -27.16413,-18.9722 -25.98256,-34.1565 2.68275,-34.476 40.94364,-51.4712 71.59202,-46.6215 59.37378,9.3952 86.97581,75.6728 75.33904,129.5828 -20.24761,93.8018 -126.00543,135.7269 -212.48553,113.3144 -139.24722,-36.0878 -199.75001,-194.7498 -161.71647,-324.5992 57.75581,-197.1828 284.68245,-281.0505 470.17513,-221.7052 269.06782,86.0838 381.616258,398.5531 294.43232,653.4238 -121.89709,356.35 -539.08808,503.4195 -878.52047,381.042 -464.1309,-167.3358 -649.8068,-705.3025 -482.6716,-1149.6088 221.0186,-587.548 906.2251,-820.4021 1470.80476,-600.4524 732.70093,285.4467 1019.0127,1139.578 735.50947,1846.1986 -12.23125,30.4859 -25.43017,60.5833 -39.56254,90.2358"
         sodipodi:t0="0"
         sodipodi:argument="-21.477144"
         sodipodi:radius="1561.1821"
         sodipodi:revolution="3.51"
         sodipodi:expansion="2.9300001"
         sodipodi:cy="6978.0767"
         sodipodi:cx="-668.57141"
         id="path4549-6-0-1"
         style="fill:none;stroke:#000000;stroke-width:5;stroke-linecap:butt;stroke-linejoin:miter;stroke-miterlimit:4;stroke-opacity:1;stroke-dasharray:none"
         sodipodi:type="spiral" />
      <path
         inkscape:transform-center-y="154.28635"
         inkscape:transform-center-x="274.28588"
         transform="matrix(-1,0,0,-1,-851.25689,14092.412)"
         d="m -668.57141,6978.0767 c -0.21083,-0.1191 0.29055,-0.5637 0.33369,-0.591 1.91148,-1.2109 3.81657,1.6668 4.17028,3.134 1.74757,7.2492 -6.86527,11.9795 -12.84664,12.2325 -17.60551,0.7445 -27.16413,-18.9722 -25.98256,-34.1565 2.68275,-34.476 40.94364,-51.4712 71.59202,-46.6215 59.37378,9.3952 86.97581,75.6728 75.33904,129.5828 -20.24761,93.8018 -126.00543,135.7269 -212.48553,113.3144 -139.24722,-36.0878 -199.75001,-194.7498 -161.71647,-324.5992 57.75581,-197.1828 284.68245,-281.0505 470.17513,-221.7052 269.06782,86.0838 381.616258,398.5531 294.43232,653.4238 -121.89709,356.35 -539.08808,503.4195 -878.52047,381.042 -464.1309,-167.3358 -649.8068,-705.3025 -482.6716,-1149.6088 221.0186,-587.548 906.2251,-820.4021 1470.80476,-600.4524 732.70093,285.4467 1019.0127,1139.578 735.50947,1846.1986 -12.23125,30.4859 -25.43017,60.5833 -39.56254,90.2358"
         sodipodi:t0="0"
         sodipodi:argument="-21.477144"
         sodipodi:radius="1561.1821"
         sodipodi:revolution="3.51"
         sodipodi:expansion="2.9300001"
         sodipodi:cy="6978.0767"
         sodipodi:cx="-668.57141"
         id="path4549-6-0-1-5"
         style="fill:none;stroke:#000000;stroke-width:5;stroke-linecap:butt;stroke-linejoin:miter;stroke-miterlimit:4;stroke-opacity:1;stroke-dasharray:none"
         sodipodi:type="spiral" />
      <path
         inkscape:transform-center-y="-249.6056"
         inkscape:transform-center-x="250.86885"
         transform="matrix(-0.70710678,-0.70710678,0.70710678,-0.70710678,-5585.701,11572.816)"
         d="m -668.57141,6978.0767 c -0.21083,-0.1191 0.29055,-0.5637 0.33369,-0.591 1.91148,-1.2109 3.81657,1.6668 4.17028,3.134 1.74757,7.2492 -6.86527,11.9795 -12.84664,12.2325 -17.60551,0.7445 -27.16413,-18.9722 -25.98256,-34.1565 2.68275,-34.476 40.94364,-51.4712 71.59202,-46.6215 59.37378,9.3952 86.97581,75.6728 75.33904,129.5828 -20.24761,93.8018 -126.00543,135.7269 -212.48553,113.3144 -139.24722,-36.0878 -199.75001,-194.7498 -161.71647,-324.5992 57.75581,-197.1828 284.68245,-281.0505 470.17513,-221.7052 269.06782,86.0838 381.616258,398.5531 294.43232,653.4238 -121.89709,356.35 -539.08808,503.4195 -878.52047,381.042 -464.1309,-167.3358 -649.8068,-705.3025 -482.6716,-1149.6088 221.0186,-587.548 906.2251,-820.4021 1470.80476,-600.4524 732.70093,285.4467 1019.0127,1139.578 735.50947,1846.1986 -12.23125,30.4859 -25.43017,60.5833 -39.56254,90.2358"
         sodipodi:t0="0"
         sodipodi:argument="-21.477144"
         sodipodi:radius="1561.1821"
         sodipodi:revolution="3.51"
         sodipodi:expansion="2.9300001"
         sodipodi:cy="6978.0767"
         sodipodi:cx="-668.57141"
         id="path4549-6-0-1-5-4"
         style="fill:none;stroke:#000000;stroke-width:5;stroke-linecap:butt;stroke-linejoin:miter;stroke-miterlimit:4;stroke-opacity:1;stroke-dasharray:none"
         sodipodi:type="spiral" />
      <path
         inkscape:transform-center-y="-274.28554"
         inkscape:transform-center-x="154.28675"
         transform="matrix(0,-1,1,0,-7151.8351,6443.4346)"
         d="m -668.57141,6978.0767 c -0.21083,-0.1191 0.29055,-0.5637 0.33369,-0.591 1.91148,-1.2109 3.81657,1.6668 4.17028,3.134 1.74757,7.2492 -6.86527,11.9795 -12.84664,12.2325 -17.60551,0.7445 -27.16413,-18.9722 -25.98256,-34.1565 2.68275,-34.476 40.94364,-51.4712 71.59202,-46.6215 59.37378,9.3952 86.97581,75.6728 75.33904,129.5828 -20.24761,93.8018 -126.00543,135.7269 -212.48553,113.3144 -139.24722,-36.0878 -199.75001,-194.7498 -161.71647,-324.5992 57.75581,-197.1828 284.68245,-281.0505 470.17513,-221.7052 269.06782,86.0838 381.616258,398.5531 294.43232,653.4238 -121.89709,356.35 -539.08808,503.4195 -878.52047,381.042 -464.1309,-167.3358 -649.8068,-705.3025 -482.6716,-1149.6088 221.0186,-587.548 906.2251,-820.4021 1470.80476,-600.4524 732.70093,285.4467 1019.0127,1139.578 735.50947,1846.1986 -12.23125,30.4859 -25.43017,60.5833 -39.56254,90.2358"
         sodipodi:t0="0"
         sodipodi:argument="-21.477144"
         sodipodi:radius="1561.1821"
         sodipodi:revolution="3.51"
         sodipodi:expansion="2.9300001"
         sodipodi:cy="6978.0767"
         sodipodi:cx="-668.57141"
         id="path4549-6-0-1-5-4-9"
         style="fill:none;stroke:#000000;stroke-width:5;stroke-linecap:butt;stroke-linejoin:miter;stroke-miterlimit:4;stroke-opacity:1;stroke-dasharray:none"
         sodipodi:type="spiral" />
      <path
         inkscape:transform-center-y="-250.86881"
         inkscape:transform-center-x="-249.6056"
         transform="matrix(0.70710678,-0.70710678,0.70710678,0.70710678,-4632.2387,1708.9902)"
         d="m -668.57141,6978.0767 c -0.21083,-0.1191 0.29055,-0.5637 0.33369,-0.591 1.91148,-1.2109 3.81657,1.6668 4.17028,3.134 1.74757,7.2492 -6.86527,11.9795 -12.84664,12.2325 -17.60551,0.7445 -27.16413,-18.9722 -25.98256,-34.1565 2.68275,-34.476 40.94364,-51.4712 71.59202,-46.6215 59.37378,9.3952 86.97581,75.6728 75.33904,129.5828 -20.24761,93.8018 -126.00543,135.7269 -212.48553,113.3144 -139.24722,-36.0878 -199.75001,-194.7498 -161.71647,-324.5992 57.75581,-197.1828 284.68245,-281.0505 470.17513,-221.7052 269.06782,86.0838 381.616258,398.5531 294.43232,653.4238 -121.89709,356.35 -539.08808,503.4195 -878.52047,381.042 -464.1309,-167.3358 -649.8068,-705.3025 -482.6716,-1149.6088 221.0186,-587.548 906.2251,-820.4021 1470.80476,-600.4524 732.70093,285.4467 1019.0127,1139.578 735.50947,1846.1986 -12.23125,30.4859 -25.43017,60.5833 -39.56254,90.2358"
         sodipodi:t0="0"
         sodipodi:argument="-21.477144"
         sodipodi:radius="1561.1821"
         sodipodi:revolution="3.51"
         sodipodi:expansion="2.9300001"
         sodipodi:cy="6978.0767"
         sodipodi:cx="-668.57141"
         id="path4549-6-0-1-5-4-9-2"
         style="fill:none;stroke:#000000;stroke-width:5;stroke-linecap:butt;stroke-linejoin:miter;stroke-miterlimit:4;stroke-opacity:1;stroke-dasharray:none"
         sodipodi:type="spiral" />
    </g>
  </g>
</svg>
