<?xml version="1.0" encoding="UTF-8" standalone="no"?>
<!-- Created with Inkscape (http://www.inkscape.org/) -->

<svg
   xmlns:dc="http://purl.org/dc/elements/1.1/"
   xmlns:cc="http://creativecommons.org/ns#"
   xmlns:rdf="http://www.w3.org/1999/02/22-rdf-syntax-ns#"
   xmlns:svg="http://www.w3.org/2000/svg"
   xmlns="http://www.w3.org/2000/svg"
   xmlns:sodipodi="http://sodipodi.sourceforge.net/DTD/sodipodi-0.dtd"
   xmlns:inkscape="http://www.inkscape.org/namespaces/inkscape"
   width="1203.8956"
   height="1203.8956"
   id="svg4293"
   version="1.1"
   inkscape:version="0.48.4 r9939"
   sodipodi:docname="spin2.svg">
  <defs
     id="defs4295">
    <clipPath
       clipPathUnits="userSpaceOnUse"
       id="clipPath4173">
      <path
         sodipodi:type="arc"
         style="fill:#ffffff;fill-opacity:1;stroke:none"
         id="path4175"
         sodipodi:cx="4325.7144"
         sodipodi:cy="-879.06641"
         sodipodi:rx="657.14288"
         sodipodi:ry="657.14288"
         d="m 4982.8572,-879.06641 a 657.14288,657.14288 0 1 1 -1e-4,-0.49575"
         sodipodi:start="0"
         sodipodi:end="6.2824309"
         sodipodi:open="true"
         transform="matrix(-0.45801887,-0.88894247,0.88894247,-0.45801887,3916.7816,2821.6539)" />
    </clipPath>
    <clipPath
       clipPathUnits="userSpaceOnUse"
       id="clipPath4173-0">
      <path
         sodipodi:type="arc"
         style="fill:#ffffff;fill-opacity:1;stroke:none"
         id="path4175-2"
         sodipodi:cx="4325.7144"
         sodipodi:cy="-879.06641"
         sodipodi:rx="657.14288"
         sodipodi:ry="657.14288"
         d="m 4982.8572,-879.06641 a 657.14288,657.14288 0 1 1 -1e-4,-0.49575"
         sodipodi:start="0"
         sodipodi:end="6.2824309"
         sodipodi:open="true"
         transform="matrix(-0.45801887,-0.88894247,0.88894247,-0.45801887,3916.7816,2821.6539)" />
    </clipPath>
    <clipPath
       clipPathUnits="userSpaceOnUse"
       id="clipPath4173-9">
      <path
         sodipodi:type="arc"
         style="fill:#ffffff;fill-opacity:1;stroke:none"
         id="path4175-2-5"
         sodipodi:cx="4325.7144"
         sodipodi:cy="-879.06641"
         sodipodi:rx="657.14288"
         sodipodi:ry="657.14288"
         d="m 4982.8572,-879.06641 a 657.14288,657.14288 0 1 1 -1e-4,-0.49575"
         sodipodi:start="0"
         sodipodi:end="6.2824309"
         sodipodi:open="true"
         transform="matrix(-0.45801887,-0.88894247,0.88894247,-0.45801887,3916.7816,2821.6539)" />
    </clipPath>
  </defs>
  <sodipodi:namedview
     id="base"
     pagecolor="#ffffff"
     bordercolor="#666666"
     borderopacity="1.0"
     inkscape:pageopacity="0.0"
     inkscape:pageshadow="2"
     inkscape:zoom="0.35000001"
     inkscape:cx="589.27612"
     inkscape:cy="-94.361872"
     inkscape:document-units="px"
     inkscape:current-layer="layer1"
     showgrid="false"
     fit-margin-top="0"
     fit-margin-left="0"
     fit-margin-right="0"
     fit-margin-bottom="0"
     inkscape:window-width="753"
     inkscape:window-height="1028"
     inkscape:window-x="447"
     inkscape:window-y="24"
     inkscape:window-maximized="0" />
  <metadata
     id="metadata4298">
    <rdf:RDF>
      <cc:Work
         rdf:about="">
        <dc:format>image/svg+xml</dc:format>
        <dc:type
           rdf:resource="http://purl.org/dc/dcmitype/StillImage" />
        <dc:title></dc:title>
      </cc:Work>
    </rdf:RDF>
  </metadata>
  <g
     inkscape:label="Layer 1"
     inkscape:groupmode="layer"
     id="layer1"
     transform="translate(265.5696,-44.752846)">
    <path
       sodipodi:type="arc"
       style="fill:#414e57;fill-opacity:1;stroke:none"
       id="path4153-5"
       sodipodi:cx="4325.7144"
       sodipodi:cy="-879.06641"
       sodipodi:rx="657.14288"
       sodipodi:ry="657.14288"
       d="m 4982.8572,-879.06641 c 0,362.93 -294.2129,657.14289 -657.1428,657.14289 -362.93,0 -657.1429,-294.21289 -657.1429,-657.14289 0,-362.92999 294.2129,-657.14289 657.1429,-657.14289 362.7364,0 656.869,293.9108 657.1427,656.64714"
       sodipodi:start="0"
       sodipodi:end="6.2824309"
       sodipodi:open="true"
       transform="matrix(0.91600745,0,0,0.91600745,-3626.0084,1451.932)" />
    <g
       transform="matrix(0.4195487,0.81427792,0.81427792,-0.4195487,357.87368,-553.59552)"
       id="g3955-0-4"
       clip-path="url(#clipPath4173-9)"
       style="stroke:#f37186;stroke-opacity:1">
      <path
         inkscape:transform-center-y="-20.065215"
         inkscape:transform-center-x="162.26637"
         transform="matrix(4.4201636,0,0,-4.4201636,622.92036,-3569.7867)"
         d="m 120,-670.49493 c 0.0266,0.0204 -0.0507,0.0716 -0.0571,0.0745 -0.28528,0.12898 -0.4907,-0.3021 -0.51082,-0.50996 -0.0994,-1.02696 1.17204,-1.50867 1.99643,-1.42778 2.42649,0.23811 3.35521,3.12414 2.89999,5.1817 -1.03359,4.67171 -6.60401,6.26105 -10.70943,5.00451 -7.95325,-2.43424 -10.45459,-12.04812 -7.81878,-19.20948 4.58623,-12.46054 19.88596,-16.16158 31.30154,-11.42018 18.38098,7.63443 23.60529,30.5414 15.88584,47.59721 -11.72238,25.90008 -44.43361,33.00682 -68.701342,21.29251 -35.201737,-16.99228 -44.58543,-61.97773 -27.716685,-95.21307 23.585206,-46.46833 83.585377,-58.55866 127.726557,-35.23445 59.88097,31.64111 75.14256,109.66503 43.92159,166.83149 -41.29901,75.6196 -140.622414,94.55187 -213.11364,53.85357 -93.863123,-52.697 -117.00007,-176.86068 -65.105543,-267.15516 2.264738,-3.94055 4.654552,-7.80919 7.163659,-11.59882"
         sodipodi:t0="0"
         sodipodi:argument="-18.195473"
         sodipodi:radius="216.0121"
         sodipodi:revolution="3.51"
         sodipodi:expansion="2.9300001"
         sodipodi:cy="-670.49493"
         sodipodi:cx="120"
         id="path2996-0-8"
         style="fill:none;stroke:#f37186;stroke-width:1.75946891000000005;stroke-linecap:butt;stroke-linejoin:bevel;stroke-miterlimit:4;stroke-opacity:1;stroke-dasharray:none"
         sodipodi:type="spiral" />
      <path
         inkscape:transform-center-y="176.09525"
         inkscape:transform-center-x="139.96799"
         transform="matrix(3.1255276,-3.1255276,-3.1255276,-3.1255276,-1306.5927,-2330.5264)"
         d="m 120,-670.49493 c 0.0266,0.0204 -0.0507,0.0716 -0.0571,0.0745 -0.28528,0.12898 -0.4907,-0.3021 -0.51082,-0.50996 -0.0994,-1.02696 1.17204,-1.50867 1.99643,-1.42778 2.42649,0.23811 3.35521,3.12414 2.89999,5.1817 -1.03359,4.67171 -6.60401,6.26105 -10.70943,5.00451 -7.95325,-2.43424 -10.45459,-12.04812 -7.81878,-19.20948 4.58623,-12.46054 19.88596,-16.16158 31.30154,-11.42018 18.38098,7.63443 23.60529,30.5414 15.88584,47.59721 -11.72238,25.90008 -44.43361,33.00682 -68.701342,21.29251 -35.201737,-16.99228 -44.58543,-61.97773 -27.716685,-95.21307 23.585206,-46.46833 83.585377,-58.55866 127.726557,-35.23445 59.88097,31.64111 75.14256,109.66503 43.92159,166.83149 -41.29901,75.6196 -140.622414,94.55187 -213.11364,53.85357 -93.863123,-52.697 -117.00007,-176.86068 -65.105543,-267.15516 2.264738,-3.94055 4.654552,-7.80919 7.163659,-11.59882"
         sodipodi:t0="0"
         sodipodi:argument="-18.195473"
         sodipodi:radius="216.0121"
         sodipodi:revolution="3.51"
         sodipodi:expansion="2.9300001"
         sodipodi:cy="-670.49493"
         sodipodi:cx="120"
         id="path2996-6-7-86"
         style="fill:none;stroke:#f37186;stroke-width:1.75946891000000005;stroke-linecap:butt;stroke-linejoin:bevel;stroke-miterlimit:4;stroke-opacity:1;stroke-dasharray:none"
         sodipodi:type="spiral" />
      <path
         inkscape:transform-center-y="162.26633"
         inkscape:transform-center-x="20.065253"
         transform="matrix(0,-4.4201636,-4.4201636,0,-1794.6751,-89.865176)"
         d="m 120,-670.49493 c 0.0266,0.0204 -0.0507,0.0716 -0.0571,0.0745 -0.28528,0.12898 -0.4907,-0.3021 -0.51082,-0.50996 -0.0994,-1.02696 1.17204,-1.50867 1.99643,-1.42778 2.42649,0.23811 3.35521,3.12414 2.89999,5.1817 -1.03359,4.67171 -6.60401,6.26105 -10.70943,5.00451 -7.95325,-2.43424 -10.45459,-12.04812 -7.81878,-19.20948 4.58623,-12.46054 19.88596,-16.16158 31.30154,-11.42018 18.38098,7.63443 23.60529,30.5414 15.88584,47.59721 -11.72238,25.90008 -44.43361,33.00682 -68.701342,21.29251 -35.201737,-16.99228 -44.58543,-61.97773 -27.716685,-95.21307 23.585206,-46.46833 83.585377,-58.55866 127.726557,-35.23445 59.88097,31.64111 75.14256,109.66503 43.92159,166.83149 -41.29901,75.6196 -140.622414,94.55187 -213.11364,53.85357 -93.863123,-52.697 -117.00007,-176.86068 -65.105543,-267.15516 2.264738,-3.94055 4.654552,-7.80919 7.163659,-11.59882"
         sodipodi:t0="0"
         sodipodi:argument="-18.195473"
         sodipodi:radius="216.0121"
         sodipodi:revolution="3.51"
         sodipodi:expansion="2.9300001"
         sodipodi:cy="-670.49493"
         sodipodi:cx="120"
         id="path2996-6-5-2-0"
         style="fill:none;stroke:#f37186;stroke-width:1.75946891000000005;stroke-linecap:butt;stroke-linejoin:bevel;stroke-miterlimit:4;stroke-opacity:1;stroke-dasharray:none"
         sodipodi:type="spiral" />
      <path
         inkscape:transform-center-y="139.96796"
         inkscape:transform-center-x="-176.09521"
         transform="matrix(-3.1255276,-3.1255276,-3.1255276,3.1255276,-555.41484,1839.6478)"
         d="m 120,-670.49493 c 0.0266,0.0204 -0.0507,0.0716 -0.0571,0.0745 -0.28528,0.12898 -0.4907,-0.3021 -0.51082,-0.50996 -0.0994,-1.02696 1.17204,-1.50867 1.99643,-1.42778 2.42649,0.23811 3.35521,3.12414 2.89999,5.1817 -1.03359,4.67171 -6.60401,6.26105 -10.70943,5.00451 -7.95325,-2.43424 -10.45459,-12.04812 -7.81878,-19.20948 4.58623,-12.46054 19.88596,-16.16158 31.30154,-11.42018 18.38098,7.63443 23.60529,30.5414 15.88584,47.59721 -11.72238,25.90008 -44.43361,33.00682 -68.701342,21.29251 -35.201737,-16.99228 -44.58543,-61.97773 -27.716685,-95.21307 23.585206,-46.46833 83.585377,-58.55866 127.726557,-35.23445 59.88097,31.64111 75.14256,109.66503 43.92159,166.83149 -41.29901,75.6196 -140.622414,94.55187 -213.11364,53.85357 -93.863123,-52.697 -117.00007,-176.86068 -65.105543,-267.15516 2.264738,-3.94055 4.654552,-7.80919 7.163659,-11.59882"
         sodipodi:t0="0"
         sodipodi:argument="-18.195473"
         sodipodi:radius="216.0121"
         sodipodi:revolution="3.51"
         sodipodi:expansion="2.9300001"
         sodipodi:cy="-670.49493"
         sodipodi:cx="120"
         id="path2996-6-5-9-9-6"
         style="fill:none;stroke:#f37186;stroke-width:1.75946891000000005;stroke-linecap:butt;stroke-linejoin:bevel;stroke-miterlimit:4;stroke-opacity:1;stroke-dasharray:none"
         sodipodi:type="spiral" />
      <path
         inkscape:transform-center-y="20.065347"
         inkscape:transform-center-x="-162.26631"
         transform="matrix(-4.4201636,0,0,4.4201636,1685.2464,2327.7303)"
         d="m 120,-670.49493 c 0.0266,0.0204 -0.0507,0.0716 -0.0571,0.0745 -0.28528,0.12898 -0.4907,-0.3021 -0.51082,-0.50996 -0.0994,-1.02696 1.17204,-1.50867 1.99643,-1.42778 2.42649,0.23811 3.35521,3.12414 2.89999,5.1817 -1.03359,4.67171 -6.60401,6.26105 -10.70943,5.00451 -7.95325,-2.43424 -10.45459,-12.04812 -7.81878,-19.20948 4.58623,-12.46054 19.88596,-16.16158 31.30154,-11.42018 18.38098,7.63443 23.60529,30.5414 15.88584,47.59721 -11.72238,25.90008 -44.43361,33.00682 -68.701342,21.29251 -35.201737,-16.99228 -44.58543,-61.97773 -27.716685,-95.21307 23.585206,-46.46833 83.585377,-58.55866 127.726557,-35.23445 59.88097,31.64111 75.14256,109.66503 43.92159,166.83149 -41.29901,75.6196 -140.622414,94.55187 -213.11364,53.85357 -93.863123,-52.697 -117.00007,-176.86068 -65.105543,-267.15516 2.264738,-3.94055 4.654552,-7.80919 7.163659,-11.59882"
         sodipodi:t0="0"
         sodipodi:argument="-18.195473"
         sodipodi:radius="216.0121"
         sodipodi:revolution="3.51"
         sodipodi:expansion="2.9300001"
         sodipodi:cy="-670.49493"
         sodipodi:cx="120"
         id="path2996-6-5-9-1-4-0"
         style="fill:none;stroke:#f37186;stroke-width:1.75946891000000005;stroke-linecap:butt;stroke-linejoin:bevel;stroke-miterlimit:4;stroke-opacity:1;stroke-dasharray:none"
         sodipodi:type="spiral" />
      <path
         inkscape:transform-center-y="-176.0952"
         inkscape:transform-center-x="-139.96802"
         transform="matrix(-3.1255276,3.1255276,3.1255276,3.1255276,3614.7596,1088.4698)"
         d="m 120,-670.49493 c 0.0266,0.0204 -0.0507,0.0716 -0.0571,0.0745 -0.28528,0.12898 -0.4907,-0.3021 -0.51082,-0.50996 -0.0994,-1.02696 1.17204,-1.50867 1.99643,-1.42778 2.42649,0.23811 3.35521,3.12414 2.89999,5.1817 -1.03359,4.67171 -6.60401,6.26105 -10.70943,5.00451 -7.95325,-2.43424 -10.45459,-12.04812 -7.81878,-19.20948 4.58623,-12.46054 19.88596,-16.16158 31.30154,-11.42018 18.38098,7.63443 23.60529,30.5414 15.88584,47.59721 -11.72238,25.90008 -44.43361,33.00682 -68.701342,21.29251 -35.201737,-16.99228 -44.58543,-61.97773 -27.716685,-95.21307 23.585206,-46.46833 83.585377,-58.55866 127.726557,-35.23445 59.88097,31.64111 75.14256,109.66503 43.92159,166.83149 -41.29901,75.6196 -140.622414,94.55187 -213.11364,53.85357 -93.863123,-52.697 -117.00007,-176.86068 -65.105543,-267.15516 2.264738,-3.94055 4.654552,-7.80919 7.163659,-11.59882"
         sodipodi:t0="0"
         sodipodi:argument="-18.195473"
         sodipodi:radius="216.0121"
         sodipodi:revolution="3.51"
         sodipodi:expansion="2.9300001"
         sodipodi:cy="-670.49493"
         sodipodi:cx="120"
         id="path2996-6-5-9-1-1-7-0"
         style="fill:none;stroke:#f37186;stroke-width:1.75946891000000005;stroke-linecap:butt;stroke-linejoin:bevel;stroke-miterlimit:4;stroke-opacity:1;stroke-dasharray:none"
         sodipodi:type="spiral" />
      <path
         inkscape:transform-center-y="-162.26634"
         inkscape:transform-center-x="-20.065387"
         transform="matrix(0,4.4201636,4.4201636,0,4102.8421,-1152.1914)"
         d="m 120,-670.49493 c 0.0266,0.0204 -0.0507,0.0716 -0.0571,0.0745 -0.28528,0.12898 -0.4907,-0.3021 -0.51082,-0.50996 -0.0994,-1.02696 1.17204,-1.50867 1.99643,-1.42778 2.42649,0.23811 3.35521,3.12414 2.89999,5.1817 -1.03359,4.67171 -6.60401,6.26105 -10.70943,5.00451 -7.95325,-2.43424 -10.45459,-12.04812 -7.81878,-19.20948 4.58623,-12.46054 19.88596,-16.16158 31.30154,-11.42018 18.38098,7.63443 23.60529,30.5414 15.88584,47.59721 -11.72238,25.90008 -44.43361,33.00682 -68.701342,21.29251 -35.201737,-16.99228 -44.58543,-61.97773 -27.716685,-95.21307 23.585206,-46.46833 83.585377,-58.55866 127.726557,-35.23445 59.88097,31.64111 75.14256,109.66503 43.92159,166.83149 -41.29901,75.6196 -140.622414,94.55187 -213.11364,53.85357 -93.863123,-52.697 -117.00007,-176.86068 -65.105543,-267.15516 2.264738,-3.94055 4.654552,-7.80919 7.163659,-11.59882"
         sodipodi:t0="0"
         sodipodi:argument="-18.195473"
         sodipodi:radius="216.0121"
         sodipodi:revolution="3.51"
         sodipodi:expansion="2.9300001"
         sodipodi:cy="-670.49493"
         sodipodi:cx="120"
         id="path2996-6-5-9-1-1-3-09-7"
         style="fill:none;stroke:#f37186;stroke-width:1.75946891000000005;stroke-linecap:butt;stroke-linejoin:bevel;stroke-miterlimit:4;stroke-opacity:1;stroke-dasharray:none"
         sodipodi:type="spiral" />
      <path
         inkscape:transform-center-y="-139.96806"
         inkscape:transform-center-x="176.09518"
         transform="matrix(3.1255276,3.1255276,3.1255276,-3.1255276,2863.5817,-3081.7047)"
         d="m 120,-670.49493 c 0.0266,0.0204 -0.0507,0.0716 -0.0571,0.0745 -0.28528,0.12898 -0.4907,-0.3021 -0.51082,-0.50996 -0.0994,-1.02696 1.17204,-1.50867 1.99643,-1.42778 2.42649,0.23811 3.35521,3.12414 2.89999,5.1817 -1.03359,4.67171 -6.60401,6.26105 -10.70943,5.00451 -7.95325,-2.43424 -10.45459,-12.04812 -7.81878,-19.20948 4.58623,-12.46054 19.88596,-16.16158 31.30154,-11.42018 18.38098,7.63443 23.60529,30.5414 15.88584,47.59721 -11.72238,25.90008 -44.43361,33.00682 -68.701342,21.29251 -35.201737,-16.99228 -44.58543,-61.97773 -27.716685,-95.21307 23.585206,-46.46833 83.585377,-58.55866 127.726557,-35.23445 59.88097,31.64111 75.14256,109.66503 43.92159,166.83149 -41.29901,75.6196 -140.622414,94.55187 -213.11364,53.85357 -93.863123,-52.697 -117.00007,-176.86068 -65.105543,-267.15516 2.264738,-3.94055 4.654552,-7.80919 7.163659,-11.59882"
         sodipodi:t0="0"
         sodipodi:argument="-18.195473"
         sodipodi:radius="216.0121"
         sodipodi:revolution="3.51"
         sodipodi:expansion="2.9300001"
         sodipodi:cy="-670.49493"
         sodipodi:cx="120"
         id="path2996-6-5-9-1-1-3-0-8-2"
         style="fill:none;stroke:#f37186;stroke-width:1.75946891000000005;stroke-linecap:butt;stroke-linejoin:bevel;stroke-miterlimit:4;stroke-opacity:1;stroke-dasharray:none"
         sodipodi:type="spiral" />
    </g>
  </g>
</svg>
